<mxfile host="app.diagrams.net" modified="2022-02-28T14:06:10.709Z" agent="5.0 (Windows NT 10.0; Win64; x64) AppleWebKit/537.36 (KHTML, like Gecko) Chrome/98.0.4758.102 Safari/537.36" etag="6AP-VjkeMYR0ix6vMGIj" version="16.6.4" type="github">
  <diagram id="TCRUe3uSkyLb6rqyTZN1" name="Page-1">
    <mxGraphModel dx="1283" dy="1787" grid="1" gridSize="10" guides="1" tooltips="1" connect="1" arrows="1" fold="1" page="1" pageScale="1" pageWidth="850" pageHeight="1100" math="0" shadow="0">
      <root>
        <mxCell id="0" />
        <mxCell id="1" parent="0" />
        <mxCell id="idfaNTtJ8LiENN7ivy_d-10" value="" style="rounded=0;whiteSpace=wrap;html=1;fillColor=#e1d5e7;strokeColor=#9673a6;opacity=40;" vertex="1" parent="1">
          <mxGeometry x="400" y="-50" width="630" height="460" as="geometry" />
        </mxCell>
        <mxCell id="idfaNTtJ8LiENN7ivy_d-1" value="JB-11&lt;br&gt;Ext: 10.50.24.199&lt;br&gt;&lt;br&gt;ens3: 172.16.0.11/25, bc: .127&lt;br&gt;Open Ports: 21, 22, 80" style="rounded=1;whiteSpace=wrap;html=1;fillColor=#dae8fc;strokeColor=#6c8ebf;" vertex="1" parent="1">
          <mxGeometry x="450" y="169" width="180" height="90" as="geometry" />
        </mxCell>
        <mxCell id="idfaNTtJ8LiENN7ivy_d-3" value="?&lt;br&gt;&lt;br&gt;ens3: 172.16.0.101/25, bc: .127&lt;br&gt;&lt;br&gt;Open Ports: &lt;b&gt;23, 80&lt;/b&gt;" style="rounded=1;whiteSpace=wrap;html=1;fillColor=#f8cecc;strokeColor=#b85450;" vertex="1" parent="1">
          <mxGeometry x="790" y="186.42000000000002" width="180" height="90" as="geometry" />
        </mxCell>
        <mxCell id="idfaNTtJ8LiENN7ivy_d-6" value="" style="shape=image;verticalLabelPosition=bottom;labelBackgroundColor=default;verticalAlign=top;aspect=fixed;imageAspect=0;image=data:image/png,iVBORw0KGgoAAAANSUhEUgAAA8sAAAKDCAYAAAAtjZgaAAAgAElEQVR4nOzd55NcV5rn9+9zbmYZeEvQASDZJJtN12TbaTNtpmd3dmK1M9LEhlahCL1ShP4BvdQLSRHSq4mQdiMmYrQaze7Mdve0GbKb3nvTNCBAgCC8994UymVl3nMevbiZBFgECFRVZuXNqt8nogiQLNw8yMq8eX/3Oec5Nj4+7oiIiIiIiIjIZ0K3ByAiIiIiIiJSNgrLIiIiIiIiIpMoLIuIiIiIiIhMorAsIiIiIiIiMonCsoiIiIiIiMgkCssiIiIiIiIikygsi4iIiIiIiEyisCwiIiIiIiIyicKyiIiIiIiIyCQKyyIiIiIiIiKTKCyLiIiIiIiITKKwLCIiIiIiIjKJwrKIiIiIiIjIJArLIiIiIiIiIpMoLIuIiIiIiIhMorAsIiIiIiIiMonCsoiIiIiIiMgkCssiIiIiIiIikygsi4iIiIiIiEyisCwiIiIiIiIyicKyiIiIiIiIyCQKyyIiIiIiIiKTKCyLiIiIiIiITKKwLCIiIiIiIjKJwrKIiIiIiIjIJArLIiIiIiIiIpMoLIuIiIiIiIhMorAsIiIiIiIiMonCsoiIiIiIiMgkCssiIiIiIiIikygsi4iIiIiIiEyisCwiIiIiIiIyicKyiIiIiIiIyCQKyyIiIiIiIiKTKCyLiIiIiIiITKKwLCIiIiIiIjKJwrKIiIiIiIjIJArLIiIiIiIiIpMoLIuIiIiIiIhMorAsIiIiIiIiMonCsoiIiIiIiMgklW4PQESkF7j7534VmU/cXa/9L2FmU35+zKxDo5lb9DwV9DzIXNQLr2uFZRGRa7gyIMcYSSl99iUyn8QYaTQaxBiv+T1Tuei52vfeaNic6eN06s/MRlju5J+5cvyzMbap/hyne1E9Gzd5bmRsM31+K5UKIWhCqMwdV76vJ/++TBSWRUSu0KqgpZSYmJig0WiQUvpcZU1VNplPWhcu13vNT+U9MZP3z3x+75XtInK2zOefubt/FiTm689f5qbJr+kQAn19fVSrVbIsK81rXmFZRKQpxki9Xqder5Pn+RcCssh8pNd+eehnMf9cebNKP3+Zy8yMPM8xs88F52q12tXQrLAsIvNea4ppKyTHGHVRIiIiIjJLrrwh1Fr61mg0qFar9PX1kWVZV5YiKCyLyLzVWotcq9Wo1+sKySIiIiIlEGP83FdfXx99fX2zHpgVlkVkXkopkef5Z0FZTbtEREREyqVVZW792t/fTwhh1qZmKyyLyLzj7jQaDcbGxqjX66VoICEiIiIiX9S6bmsF5oGBgc+agHWaetCLyLzTCsqNRkNBWURERKQHpJSo1WqMj4/P2rI5hWURmVcajQbj4+M0Go1uD0VEREREpqC1tef4+PisLKFTWBaReSPPc8bHx6nX690eioiIiIhMQ6vCPDEx0fHArLAsIvOCuzMxMUGj0VDHaxEREZEeFmNkYmKCPM87+jgKyyIyL+R5TqPRUNdrERERkTmg0WhQr9c7GpgVlkXKJCXIc8i1nradWlVl7aMsIiIiMje4O/V6vaOzBrV1lEiJ+PAwPnwJ6+vDblrT7eHMCe5OSqk9eym3Ome7F18iIp1kNM87V5x7OvlgdsXv5epm9alp/bzt8m9F5gS/4peZvbjzPCfPc1JKZFk245FNprAsUhpO/OgjfNcuwn33kf2JwnI7tO46zqyq7BAyqFQxDG9MQIy6nhSRznGK8061CiHDYsQ7MevIm+e3ah9WCcXjOugEdw0zelpu9A9f5bNKYVnmDG/eCARSwusNSHH6R3P/LDArLIvMVSmRNnxIeuZJPI+EBx/s9ojmDHenVqtN/wAWIOX4kb2knZtJ+7fjwxegXlN1WUQ6q9qHDS7Gbl1PuPfr2N0PYoOLIbVhfV6rYh0b+ImDxD1b4fQxfOSSlgJdNdPO8OaBfdkxJn+WTP4+b97E0GeOzBFZBgMLsJVrCPc8jN12FzYwWPy/Kb7OzYwYI41Gg76+Pszae6NPYVmk29zx/fvJf/846eOPsPsfhP7+bo9qzkgpkVKaXlXZAp43SO8+R/z4HfzEIRgdxlMOSRctItJhZhACtn8bacdGwn2Pkv3oL7DVt1IEqBmch9zxcyeIH75K2vIePnQOJsaLvhkKZR1yo2F58vfq5yFzjUEWoG+AtOF17M6vkf3ovyKsvbs4703xHJRSIsbYkanYCssi3VSvkw4fJv7y56QN7+HDw4TFSwgrV3Z7ZHNCSumzdSxT5o43JojvPEt67yXS0X1Qnyj+n9nl9csiIp3ixZxor43hI5fwofP4xfNU/pv/EVu2CkKYXrANgXRwF/Hd50lb38fPnrxiGqTObSIyGxwYwi+cwc6fgtoYfP/PCPc8DJXq1I7kToyRGKPCssickTdIx4+T//bXxBefhZEhrH8htmQptnx5t0c3J7ROnlOuKptBjKR9nxLfeqaoKKe8uDAVEZktranSBnjCz50mfvgqtv5esu/8CbZ42dSPGQJ+8Rzpk/eIf3gRxoaLC9PQ/rV+IiLXZYYPDxE3vQWVCixaSrjjq0VvmCloXfO1m678RLqhGZTja6+QP/ZruHAW8gaeZTC4AAYHuj3COWU6U7C9XiP94UX81NFiWqKqLSLSbcEgReK7z+NnjkPMmdoUXS9Cd3NaNyNDkFU17VpEuse96A9TGyft2kLasWnKS91a65RnvOvJVSgsi8y2lPDTZ4ivvUr+93+HjY9cnv5WrRRBuV9huV3cferNHlLEL10gffoBxEZxgSoiUgYh4Ef24KePFo0GbQqXcg5M1Eh7t+HHDkJfP1oPKyLd55BV8LMn8QM78Evnp36E5lah7aawLDLLfHiY/JWXyH/xD3Dx9OWgHBNWrcBgf9ElUGas1fBhqrzRwIfOkYYvFv9B65NFpCxShHodxkbwfIpdsS3gw0Nw8QyMD3dmfCIi02E0ixUX8dPHprz0TWFZZC4YHyc++yTpycfg5LHPr8dwx5YswZYs7d745qBpdcFOEcZGMG9t19H2YYmIzECzyeBU7+OZQaOOT0zgedT0axEpn8ZE0UuhJMvf1OBLZDa4w+go+dNPEp9+grR3NzTql/9/s02+rViJLV/RvXHOQdPab88TxEbRU6ftIxIRmSFjejNejGJpSZrqWmcRkVmSEjSmt9f7tAok16GwLNJp7vjEBOn1V4jPPUXatQNq41f9PpavxFZo26jual6AquIiInOOFReirikzIlJinspSWFZYFukod3xkhLRtK/njvyFt3wpjo1f/1piwZcu0bVQplOQMLSIiIiJdo7As0kE+Okravo34q1+SNm6A+sTVv9EM3GDhYli4aHYHKSIiIiIiX6CwLNIpjQa+by/x8X8mvvTc5a7XV2OG9fdjfX3qhC0iIiIiUgLqhi3SCe6k/fuJTz9JfPYJ8Mh114ctGISBgSm3yhcRERERkfZTZVmkA9KuXcTf/pr43JNF19EbaBYVbroZW7UK6++bhRGKiIiIiMiXUVgWabO0ZzfxqSeIb7+OXzzPDXUcdWDx0mK9sqZhi4iIiIh0ncKySLu446dPE595kvj6y/iJo4Df2BZE7rBwIQwMQlBYFhERERHpNoVlkXaIET9/jvjyC8SXX8APH4B8Chuqe4IFg9hAf9EZW0REREREukqdhERmKiX84gXiO2+T/+rn+NHDkOdTO4Y7tnAQ+vsUlkVERERESkCVZZGZcMdHRkifbCH/f/8f/OC+oqHXVFjAgmHLlsHgYGfGKSIiIiIiU6KwLDITY2PEd96m8bd/A4f2Tj0oA5jhff2wag22cFH7xygiIiIiIlOmadgi0zU+Rnz7LeJjv4GDeyFOIygDGGCGrVpddMMWEREREZGuU1gWmab41lvkv3+MtPVjaExM7yBmRWWZCmH5CmzBgvYOUkREREREpkXTsEWmwh0aDdKWj4nPPU3atAEuDXFDeylfixnW1w8LFkC12rahioiIiIjI9Cksi0xFzIk7thP/+dekDe/BpQttOKjBokVQUVAWERERESkLhWWRG1WfwI8dK4Lym6/hF8+357juhNWrob+/PccTEREREZEZU1gWuRF5jh85Qv6LfyQ99Then+Ya5cmS4zEnu/9+bMni9hxTRERERERmTA2+RK4nJfzIYfLnniY+83u8Xi/WLrft+A7Llmu9soiIiIhIiaiyLHIdfvgQ+QvPkD/1OxgdAU/tf5Dly6Ha1/7jioiIiIjItCgsi1yLO37uHPGVl4hPPwHHj0Jqc1A2wBIsXAiVrL3HFhERERGRaVNYFrmWixeJr71KfOkFfP/e9k69BqDYY9n6K9jCQcgUlkVEREREykJhWWQyd3xkhPT2m8QnHiPt2NaBoExRVa5UsCVLYOFiTGFZRERERKQ0FJZFruSOj46SNm2i8Z//Dt+3Gxpt6nx9NZUKtnI1tmQpVPR2FBEREREpC3XDFrmCj4+Tdmyn8e//Gj+wD+oTnakqA5hBVoGly7ClS4vfi4iIiIhIKejqXKSlVsO3f0r+H/8GP7AHarXOBeWWYPjAEhhcoDXLIiIiIiIlorAsAtBokD7ZTP5PvyBt2gi18c4HZYAswxYvLqZgm3X+8URERERE5IYoLIs0GqTt24jPP0d87x0YvTR7jx0ybPlyCFoRISIiIiJSJrpCl/ktJdL27cRnnia+9TqcPzc7j2sGycEh3HMPVq3OzuOKiIiIiMxB3oFZoaosy/yVEn7oEPHZp8lffh6OH5nd20cxQTKyB+6Hvr5ZfGARERERkbmjE0EZVFmW+SpG0rlz5E/8jvzVF+HkMQizu2bY3SEEbOVKTcMWEREREZkBVZZF2sRHR4lPPUn+z7+C82fAU3cGklXwlaswdcIWERERESkVhWWZd/zUKeIzT5H/4/8Hly4As9D1+iosgA1kWH+/OmGLiIiIiJSMwrLMK37uLPHdt8h/83M4c6qoKM/GFlFfGAjQ34+tWKGgLCIiIiJSQgrLMm/4qZPEt98kPvk4fuQQpC5Mvc6ABDjY4ELs5ltnfwwiIiIiInJd6iok84IPXSR9+D7xuadImzd2p5rcDwxQBGaABQuwW2+b/XGIiIiIiMh1KSzL3DcxQdr4EfH5Z/DNm/B6fXbDsgMJbI1hAwatWdf9g9iaW2ZvHCIiIiIicsMUlmXuci+2iNq3j/y3vya+/wd8bJSurBCuQFgfiqAcm/+t2octWdaN0YiIiIiIyHVozbLMXTHip0/T+L/+mrTpQxgdYdY7XzvQB+H+UKxVnqAZlr07U8FFREREROSGqLIsc5afP0/9P/zfpE+3QG2UrmwRlUFYGQjfCPgRx8cnjcH0FhQRERERKSNVlmXuSanofP3yi6TXX4SR4e50vk5gywy73yADP+vQoJiK3crM2jZKRERERKSUFJZlzvHz50kfvE986vdw4RyELlRvHWzQsNsMW2v4ccdrXoTkYJ+FZVdYFhEREREpJc0BlbllbJT0yRbi88+SdnzanaAMRfV4NdhdBn3g+/3yf2/9GkyVZRERERGRklJYlrmjUSft2kl85QXiB+9AyrszDgcWgq0vKss+4vjRyWHZIMuwSnato4iIiIiISBcpLMuc4SdOEJ9+kvj6yzA+BqkLDb2aYTisC4Q7A1YxOAN+yYtu2J99n0HIINNKCBERERGRMlJYlrkhz4nPP0t89y38/LnujSOBLTfsLsNWGz7q+LFJQRnAApZlkKmyLCIiIiJSRgrL0vtSIv/tb4jPP4MfP0rXVgE7ECE8ErDbragyXwI/7jA5ExuQBYVlEREREZGS0hxQ6W21Gmn3buJTj5MO7oN6vXtjseY65XWGLTR83PFzXkzBnpzgQyimYXerAZmIiIiIiHwpXalL75qYIO3fR/5PPyft2Qm1cS5vYDzLDFgI4aGALb6iqnzGIV79j3hQZVlEREREpKwUlqU35TnpyGHiC88TX36+aOjlXQrKDvRBuCtgdxpUgQR+0fHTV6kqW3PLqEoFBge6MGAREREREbkeTcOW3uOOnz1Deu8d8iceg7FhSJM7aM2iDGyZER4O2GAzGdeBC82vq4blgFWrhCVLZnesIiIiIiJyQ1RZlp7jY2PEDR8Qn3kKzpzoblB2sEVG+ErAbrGiymzgw46fd7x2rWp3wLI+GFBlWURERESkjBSWpbe441s2E599hvjxpu7spfzZWIAK2K2GPWyXt4cy8JNFc69rtuY2gyzDMr0FRURERETKSFfq0lPSJ5+QP/l70uaNmCW61tCL4qFtjWF3F92v8eK/eb0ZlEe49jvMKJp7qcGXiIiIiEgpKSxLb3DHh4aIT/2O9P67MHShu+NJwOJiq6hwW7ic2QNwEbgAPnGNyrJ7UVkOAQ8KyyIiIiIiZaQGX1J+KeGXLhGfe5b47lv46S6vU24K6wPhzgALuByWK80p2EPNLaOuMw0bhWURERERkVJSWJbS89FR0oYPyP/5V/jxo5CusXHxbElF92u7y7DVX0zDftzx4etMD2+F5YrCsoiIiIhIGWkatpSXO4yP43t2k//2n/B9u2Ci1u1RQQXCPQFbY1+83TQGfsahxrWrytCchp1hWrMsIiIiIlJKqixLecVI2ruH/Df/RHzzVcy+LH3Ogua2ULbGsAcMW3xFB+ymdDgVjb0S8GU52AJkQQ2+RERERERKSpVlKS0/fZr47tvEl18sTwW2CuFbAVtqX3z3JEgHE5779d9ZzcqyB70FRURERETKSJVlKSU/e5b48ovEp5+A8eHuN/RyoB/CVwJ2e3P69ZXLkhP4qMNJvryxV0uzG7ZleguKiIiIiJSRylpSPo0G8c3XiC88gx8+WI6gnIGtNOxhwwYmJWGjCMunHIYowvL1tBp8laViLiIiIiIin6OwLOUSI+mTLaTXXibt3Ab1iW6PCABbZIQ7A+HWq7xlDLzh+GHH6/6FdczXFELxJSIiIiIipaMrdSmPGEkHDpA/9QRp6xYYG+Hzc527wIE+sFsNu9uu3rQrUXTBPuqfNQG7MV1uWCYiIiIiItekBZNSDjHiFy4Qn36C+NqLcOYUpQiTDraqCMq22q4+xboOft7x814M+UbzvXf5RoCIiIiIiFyTKsvSfe740BDxzTfIH/81nDtTjiDZWqu83rA77eoh2MDHHT/hkE/x2ClBvJEFziIiIiIiMtsUlqX7ajV85w7yv/tbuHih+w29Wrzofh3WB6zvKmG59e8j4Meb20XdcMZPkKLCsoiIiIhISWkatnRXrUb8eBP5z/8RP3oI8kY5qsqp2f36HoNVXLOqTB38guNnfWqzxt2LsFyWGwMiIiIiIvI5qixLV6Xdu4gvPk/a+CE0JsoRlJvsHisae/VfYwp2AB9z/JxDbYoHTw5R07BFRERERMpKlWXpDnf8+HHim6+T3n4dLl3o9ogus6L7dbgrYIuuUy6+CJyZxmO4F0E5TmWhs4iIiIiIzBZVlqUr/OJF4ltvEN94BT9yELxE05EXQHg4YCubW0VdrarsQAP8XLML9tW2lPoyrbCcKyyLiIiIiJSRwrLMvkaDtPEj4jNP4bt2QjbVpNkhDlTBbmmuVe7j2g27DHzYi/XK41NcrwyfrVl2TcMWERERESklTcOW2RUj6ehR8l/8I2n7lmKdconYUiP7RlasU4ZrV5WrzaryOS/2Xp5OWI45lhSWRURERETKSJVlmT0x4mfPkP/t3+C7tkNtvNsjuiwVQTncG7BbDBJfWlXGgFPAuWk8llkRlnNNwxYRERERKSuFZZkd7vi5s+RPPUl65w186ELREboMHAhgNxnhq6FYf/xllWIDHy3WKk9rCnbrQVPCtXWUiIiIiEgpKSzLrPBzZ0nvvk167in8wrlmF+iShGXA1hj2FYPlXH9YBn7S8SEvKtBT5Q4e8byGj4xO4wAiIiIiItJpCsvSeeNjpK2fkD/1BL5nZ7k6XzuwAOxOw9bajVWJHfyowxjTfwe5440GPjwyzQOIiIiIiEgnqcGXdFajQdq9m/jaK8QP38dio6islojdZoR1AVti168UO3jN8dOOT3gRlqf613EHB8sjTJSrwZmIiIiIiBQUlqVzPOHHjxGfe4b0ykvlC8rNqnK4J2BrprDw+BxwEWjM5LETJDX4EhEREREpK4Vl6RgfGyd/8nfEV5/HL5wu0xLlQoLwQMBuNahyQ2uVAdL+hI8V1eHpNfei2Q07gRp8iYiIiIiUktYsS2ekRHrzddIf3sZPnixXUG6OxVY2t4paZDc2Pgfq4Md8ZlVlgOR4jBC1z7KIiIiISBmpsiztV6+Ttmwh//UvSbt3QT7TZNlmBgxA+FbAltuN3zLKwc86nKdY2zzdqjI0p2HnmoYtIiIiIlJSCsvSXhMTpIMHyB/7FWnHpzA6QqnKyg70Q1gfsLua069vVAQfcrzRhr+PO8SEKyyLiIiIiJSSpmFL+7iTTp8iPvs08a3XyheUm2ypYQ9YMf36RqvDre9rx6zpVpOzpDXLIiIiIiJlpcqytEdK+IXzpA0fkv/+cfz8eaxsQdmBhWBrDbtjGnOoDehr11gc3LEydQcXEREREZHPqLIsbeFjo8T3/0D+m1/CuZPYTNbzdkoG4bZA+FrA7AaberW0moJVplCNvqHjKiyLiIiIiJSRwrLMnDv+6VbSi8/jn24uOjyXLQRGsGWGrbdiT+XpzH42prbG+UZoGraIiIiISCkpLMuMpV07yZ99kvTBu+UMfw5Uwb5i2J0zKAsH2heWzcATXp9o0wFFRERERKSdFJZlRvz0aeLTT5Le+wN+aaicYRmwdUZYG7CFU5x+PVmV9k3DHhvBjxxq08FERERERKSdFJZletyhViO++hLpnTfxE8fKGZQTsBDCPQG7aQp7Kl+NARnFMdoQmH1kmHRw38wPJCIiIiIibaewLNNTqxE//ID4zFOkwwcgb3R7RFdnEO4M2G0GC5j5TlYBLGtDUjZgbAw/drScNxlEREREROY5hWWZunqddPgQjX/4T6Rtn8DYaLdHdHVW7KkcHgjYkvYEXAtWVJfbodHAzw/B+Hj5GqKJiIiIiMxzCssyNTHiJ46TXnyO9PZrUBujlPtEOVABe8iK6dcVZl5VNiCAV9oQbN2LfJxH/MypooO4iIiIiIiUhsKyTImfPEF84Tka/+Xvi+nI7uWrijqQga0ysu9k0MfMg3JL1qa9ls2a07lz0p7d0CjpNHYRERERkXlKYVlu3MgI8f33yZ95qph6XbaQ3GJgy43w9dC+KdPN4xK4fMyZ/vWzDAzips34hLaQEhEREREpE4VluTH1OvG9PxBffA4/tL+8TakS2ALD1hl2h0GkfVVlKAJzpQ3Had1oiJF07DjkeRsOKiIiIiIi7aKwLNcXI3HrFuLLz+NbNsFErbxV5QxsjRHubu6p3G6BIiy349BOsVb5wtmiUq91yyIiIiIipaGwLNflx4+TXnqB9NEH+NB52luqbSMvul/besNusfYPszkN2yrtCuFeVJQvnMEvXlB1WURERESkRBSW5do8wdgo8eWXiG+9gZ88Ud6Kcqup1/piCjZVOpPp21lZhmJ/6rOn8fPncTX5EhEREREpjXasvpS5yB3Ga6StW8n/038stjcqa0UZirXKNxv2FcNWG3RqSbVTBPG2TMN2yBukc+dhaEiVZRERERGRElFYlqvyWo20YzuNf//X+PAFOpc+28DAqkb4WiiCcqczfbvCMhRjTY5fvKjto0RERERESkTTsOWL3PHDh4m/+RVp+zaYqHd7RNfmQA52t2G3GzbY+bBsfYZZO5uHBfzsWahr+ygRERERkbJQZVk+LyXSvn3E558lvfc2Vhuj1NOvDWyRYQ8ZttyK2z+dGm7ruK3KsjPzCrOBVQO+ewc+PNy2grWIiIiIiMyMKsvyOX7+POnD94ivvICfPd2+6cad0gd2rxFuDp1r6nUlLx6zbe8cM8gCaf9+GB1p00FFRERERGSmFJblspER0sYNxDdfww/sLbphl7379WojPNQMyrOlnWuWm/zCRXxkRE2+RERERERKQmFZCjGSdmwjf/L3pA/eh5iXNyg32WIjfDVgN9vladGd1qost63Bl0NKUK/hp07hI8NtOrCIiIiIiMyEwrIUgW1oiPzXvyBt+ANMjJU7KDcDq91i2H0d3Cbqao8L7a8se8LiBL7jU/zkyTYeWEREREREpktheb5LCR8ZJv/5P5A2boBLQ+UOygAOtsawrxo2MAtbRU1ifdbmsOx4ctKB/fjpU7imYouIiIiIdJ3C8jznI8OkF18gf/4Z/Mzpbg/n+hLYQiOsDYTbuvTyzSjeOW1et5x278IPHoRarb0HFhERERGRKVNYnsd8eJj08WYaj/8GP3YY8ka3h3R9DrbKinXKg3RnV6us+dXmqdicP4cfPgRnz7bxwDI9JZ9dISIyIzrHiYjcCIXl+apWw3ftJD71O9Knn0Cj3u0R3Zg+iqC8ku591gcuV5bb2ugrkvbtIR3Y16aDCoBPeVlBcwPtLCv+tezbp4mI3DAHC8W2hSIiZWWhNPf0FJbnoxhJhw+Rv/Eq8Y1XscZE+dcpQ/EZv8zg5mIq9qw19pqsQ9OwyQJ++AC+Z7emYneZZRnWvxBvXVDqulJE5gJ3qFYhqyo0i0g5ZRn09VOWtKywPA/5xQukd94mvfg8jA73RlAGyMFuN2yFFYG1W8PuxDTsJh+6SDp6mHTqVPsPPg+ZGSFM4zSXVWDxUugbKP69V94jIjIPGIRQnKemU33pH4CBBVCpdmR0IiLTZhTnqMVLy5KVFZbno7TxI+Kbr+JHDlKaV+L1NIdp662oLkN3qn0OZGChzR2xoeiKPTqKHz6MHzzQ5oPPT2ZG1ppOPRWVCrZsFXbz7UXlRWFZRMoiBGzhEmzJSqzax5Q+x1OChUuwZSuxwQUdG6KIyJQ5EDJs0VJs1S1FP58SUFieZ/zMGeIrL5E2fQR4b4SAK4PyCoMK3cv4RvGu6URl2R3zhB87gn/6SaXPe9EAACAASURBVJsPPr9Nfd1ywAYXUfnxX2ILFnVkTCIiU+YOeU745o+x2+64PPtlCqx/ELv3EWztPVCvaSq2iJSAQWxgq28j3PMwtmQFZSnoKSzPI16vE199Cd+1A+o9sk4ZilCagd1tMEDX3zuWWWfWLDf5yROknTtA+y23hZlhU70Y9ARZRnjkB4SHv18E5hg7M0ARkRvhRXOucPM6sh//BbZs1dSDbnOmTPjK/WQPfhdbuqr4rFFeFpFuShEWLCY88C3C177RzCjlODFVuj0AmSUx4tu2kV55mXT0cPH665GsTABbaoR1Aeuz7o7b+Xw37E6o10gnj5F27SQ88GCHHmR+CCFQqVQIIZDSFKfzmGFLV5D97K9gYJD06Qf4mRPFjSZVYuQqeuWUKr3jszNNCNiSFYS7HyD79s8Ia++CSt/0bnq7YwsWEx7+I7KJGnHDa/jxA8UUbcDpwDIj6Ul2xT+LXzr9wvDP/SJzmTd/zkUotuWrCd/+Kdl3f4atvvWz81EZKCzPBynB6CjxhedIO7bByDA9cyZyoAK2rrlWeRrLT9vOKN45nfrMMPCL58nffw/uvbdnflRlNfUp2J8X7vgahIyw+lbSod34pfNQr0PK9bOR4jWQT+CNOlaS9VUyRzhYpQJ9g7B0JeH2Own3PUr46qPNG3YzOAG5Y2vWkv3gX2GLl5J2bMTPHsdrNaxXZp1J57kX15AeISW8FWA6cMPYWscNrS7tumMz51mAvn5s5c2EO+8jfPPHhFvXQ8hKNftVYXk+qI2TdmwnvvEqPnSht6rKgA0Y4e5wOaB2c+yt83enxuJefEgMXaKxaQONv/yvixb6+uCYkWkHZneIOeH2r8Ca2wmXLuBD5/DxMch7ZG9y6Rxv9n2YGIOJcYhaOiFtVh0oGnKtuoWw6mZYsJi29RsJAVu5huyH/5rw1UfxI7vx0UuXl5zoI2d+c4qAnOeQNyCv43kHXxtmWFYpurxnnZy+J2VhlSosWIytvZtwy/qiC3YJm6oqLM91McdPniT//WP4qWPQmOj2iKamCrbCsFut+0G5xcCqxTpY79SARkdg314aR4/iN62Bit6q3ePFGuZKFVt5czE9qLU/qT7LBbt8L0vT86XdErin4kZMjMW6vna9zloXpJUKdvudhPX3QDC9juUz7kBqfgam1OEQY5dff3oNzhPNa+nYvCEDpQvKoLA85/mlYdLmj4lP/b6YNtpLHGyRYXcZ9AMl6q/kVceDt5ZatPngDvUJ7PRxso8/Iv+Xf17KO23zS/OH7AmiptrK5+mdKbOmUyEiRlxNDOVaZuv6I6LrnfnEmj0SSk5heS6LkbR3D/mzT0Ns0HOXdAYsBVtrpQrKUHTENjpYWQZsYoLqu28Rf/RTvH9AHx4iIiIy+2a70qvKspSIto6aw9Khg6R33iR9urn3posmsAVGWBOKvZXLojWUKsW7p1P5NQRIiWzrVsLJE1BvdOiBRERERETkahSW56p6vZh+/fqrcGmoN6uSK4BbKUcH7MmqXA7Oncry7tj5c2Q7t2OjI7rTKiIiIiIyixSW5yJ30v59pA0f4Pv2FOsse00f2GrDVhuUbfhG5yvL0NyyIRI2b8IuXujgA4mIiIiIyGQKy3OQDw0R33idtGVT7zX1gmIK9jLD1hi2sIRhGTq7z/KVskC2dSt2+hTkOT237lxEREREpEcpLM817qQtH5PeeQM/uP/yPqC9JILdatjNVkzBLuPs49na89mMcPQQ2aEDxVTsUMY56SIiIiIic4/C8lyT58RnnyHt3VXsx9hrQdmbexjfbNhyK28htTUNexZYvUHYtQs7cwbPFJZFRERERGaDwvJcUqsRn3qy6H596VLvBWUowvI6w1Y2q8pl/Cs4RWV5lnKr91cJOz4lHDqANRq9+XMVEREREekxCstzRaNBOnaU/InH8ZMniqpyr7Hm/sV3GLa4pGuVm6xil6eHdzq7Zhnh9EnCoYNFoy91xRYRERER6bhKtwcg7eFDF4umXjs+hfHR3q0+LqNYqzxAOavKLRVm9VaTjY2RHdhPPHaMuOomyLXvskgpXHmu7fSNrM8eq8wnRxGZO5rntFm9Se86xc0XPVL8UVieC0ZGSDu2EV96DsZGIJW4JHstTlFZXm+wjOKVWeKTpQ0aVjXcZmGQ7pASYf9ewp6d5Pd9FatPdP5xReQ6rPiwzypQqV7+4G/3zUprPk5y8GYvihKfH0Wkx7UyjBlYgGCdv7Zsnefc0QlunrjyZ17iIp/Ccq9zJx09THrpBdi+tTf3VIbP9i62ewwbKPmdJgcWAgu4vK6600MORjh+BNv4Pun2VZDy4iHLe24RmfvMoFrFBxZiS5ZjS1diCxYV4bmdH/x5jtdGYXgIr49DI29euOoEICIdYBS7b1Sq2MACWLSkOLdZ6Fyoqdfw8VGYqEFe103Buax1E6Zahf7By5+bJVXekcmNmZjAt28nvvgC3qiX+s7Ml6qA3WSE1aG8jb1anGKMS4oKs4/NwmDNsFoN++gd0oktxP6A9erPWmQuCRneP0C4ZT3hkR8SHv4jwupbiwvNdrxHG3X89DHS9g3EbR/h50/j42O92ZdCRHqGVTJYsIhw0+2Erz5KeOQH2NIV7Q01ZhAjPj6CH9xJ2r0FP3UUH70Eed6717Ty5cygrx8WLSPcvJbw4HewW9Zh/QtKOTXbxsfH9UrsVSmRNnxI4xf/QHz+aSwre8q8BgcWQfheIHsg6422c32QNifSpoSf8lkZsznkAxljK/sZX9GPJcq5B7XIvNJs9pfnEDLCvQ9R+dP/lvDtn0K9NoPDBnxsmPTha8TXfkc6sheyrLhQbU1dExHplNbU2JgXO5UsX03lf/ifCfd9A+sfKG7Yzeg8VMzMSds2EF99nLT9I3x0GEIovnSBM7c1lxjiCQYXkH3rp2T/8t8R1n5lRtOyK5UKK1asaOtQVVnuYX7iBPGdt0mbNvZuUAYIYEuMcEfonXNjDrbUYDFwmmLcHX763cDyRGW0QVhcxUPnH1NErqf15jdIkbRvO7k9RmXlTYS190xv/Z0ZeCK+8xzxnefwU0eKSjXh8rpBhWUR6aTPwkpxrvGhc8Tf/z386xrhgW8XU2enW/m1Yg102vYR+TM/Jx3cCbVa82Zge4YvZdZ83bRuitTrxI1vFr//8b8h3HV/8doqyeecwnIPSx9tIG14H86f7fZQps+BBUUHbFta7u2iPicCi8AWGR5mL7GG6FTqiWwi0hisYErLIl3WfA9a8x+NOn50P/Ht57B/+z9hlb6pf+CHjLRzE2nr+/iJQ8VjhEnTVzQ9UURmgzVnz7iTju2DD1/Flq3Cvvp1iNNcDpISDF8kvvoYfnBXsYuLGUrK88UV26+2fjMxTtr6PrZsZfG16tbSLDfqhQmvchVpz27Su2/h+/cUU2R6NTRZUVW29dZz50hbUOwHbX02q09/1kj0DzcUlEXKyAwfGy2mFJ47NfUPe3do1EmfvI+fONysJPfYyVFE5p5mNdj3bCUd3l0045rucRoTpP3bids3Fs0LS1JBlC6ygF86T9q9uZhpkJUnopZnJHJj3GF8nPTaq6StH+PDQ719HdUHtsqKvZXLcQPpxlUpumIPMqthOeRO30hOVk89e49EZE6LDbh4Fi6cmca6Pi/WKh/ejY8NF+uURUTKIMvw4Qv4ySMwdH56IdcCXhsn7fy4d7c7lQ6xosHb4b3Tn7XQAQrLvSbPSfv2Ed96nXTieG9PxUvNqvIthi2Y3ersjBnFWuuFBouY9enjWSPRf6lOSL30pInME+5F05JGfXrntdFLMDIMjUbbhyYiMiMOjAwVX9OqCDtMjOPHDhTLS1RVlpYQ8PEx/OI5fGIGDTLbTGG5l7jjI8Pkj/8G37sTxsd6PyyvNmxtcwp2L54vF4Mtm/2quCVn4Hyd0FB1WaSUpr3+zoou2vVaUZXu5XO8iMxNE7VmmJniOa7V5Tiv4yNDxV67CsvSYgZ5A2rjxc3mklzgKiz3EB8eJn3wAemN1/CRkW4PZ2a8ueb3JsOW91Bjryu1mpMttWLf5VlWaST6h3NCXo6TiYi0gYEnx2ewdYaISEd5c8ufaRWWHU8J99ibRRLpMMdT1DRsmR4/dZL8n3+Nnz3VbOrVo4wiHN8CrKZ3T5ZO0dxrEVj/7P8lPBj9w3Uq9ViWm28iIiIi19Gr0wml0/wqv+u2aW8dFV95Cfr6sFtvw1avxpYsKaZTSEf4iROkd94mbd7YXAdXnhfRlDlFY6/be7iqDMXfI2uuW14CnGPWz/2hnqiO5MRqIPaHMp1bRERERER62vTD8nNP40MXsdvWEtatw25fh61dh61bj/X3Q6XyxX0hZVp8bIy07VPia6/AyKVuD2fmWmuVb7pKYy+jdwJf68boQLFu2c/6rIdlc+gbaZAPZsQ+vd9ERERERNpl2mHZ9+4m7dwOgwtIy1dga27B7rmb8NX7Yc0awk03Y6tWw7Kl2IKFCs4z4EeOkD54j7T9k2Lxu/dqKbYpXVFVrnC5suxA1mz2Fb13QvMAsIKujbdST1THchqDGamq95mIiIiISDtMOywXW+cUXTv99An8zAn84w8hgt1xB+FrDxLuf4Bwz73Y7Wux5cth4UKsrx+qVYXnGzU+Ttr0EfH9d+dGVRmgH2y9FdOXJ1eVAzCQQS1CowfSslP8fVZc0dF7lodt7lTHI31jObWlfbP74CIiIiIic9T0wzJcbgHfZCEUYef4EeKJo8Q3XoG+QcKqmwjf+w7hO98n3HEXtmYNtmhREZqzgBb5X4M7acc24nvvkA7sxcx6e60yQIBwWyjCZYUvBsvcYaBSVJsbvdHEzPoMX+rFr13oTO1mZBOR6khOfUFF1WURERERkTaYWWV5slaQc28GuwZMRPz4KPHJI8Snni4agt31FcJX7yN79FHCN74JgwumPYw5bWyM+Oqr+CebsZj3flAGMLB1VnSPvloVNgExwWAGyWGsB7YWyIptsFgMXOjOECxBtRbpG80ZX9GPpTnwWhERERER6aJph2W76WY4eADGx6/+Da2qc+ur0QDG8SN1/MwJ0tZNxBefgdWrCevvJDzyLcL69UWYXr68qDrPc+n9P5A2vo+fOTU3gjIUwXchXzJd2WE8wvI+sAo0UjEdu8yB2SimYq80/EJzrfVsj9cgNBJ9ww3qi6ukrMxPmIiIiIhI+U07LIc/+iHp6FH84L4v3zh6csir14qvSxfxkyfwA/vwXTtJH39MuPlm7La12NfuJzz0UNFde2Bw/q1vjhE/fYr85RfwwwchNnqn2dX1NLtHX3uHb4N6s+PXYAa1SvNGS7lZxWANsI+u/azMoTJRBObaMq1dFhERERGZiemH5R/+iLBzO/H8Obh4/sYrn1d+n4HlDTh3Bj91irh3J7ZoCWzeSPjo3qI52L33Ee66G1u1Cvr6im7Qc12tRnr1FdLGDfiloW6Ppr0MbMCuXXk1IG9Wk/szWFhpNvsqcQfw1n7Lqw2rGl7v3p2NkDv9l+rUF1VIlXl2k0lEREREpI2mH5bvvpvwvT/GDx0kDV0E/5Lq8rVcGZwzg7yBD52H82eJWzcTl68gPPwo4RvfItx9D3bHndjqm7AFC4rgPBfV66SjR8if+B1+6mRPVFWn5LqVZYrw2YjglaIz9uIqXJgob3XdgVDstcwCIOfydlizzNypjkWqo5GJxVZ0rBcRERERkSmbfoOvkJF973ukndtg7x4YG4Y0w4TQWt/cur4fukB6+3XShvew5asJP/wR2Xe/i62/s1jbvHQpZNncqTanhJ89S3zzdeKnH2O9vp/yZAaWGVT58jW9RlFZzlMRlhdWYLQBEyV+Pqxo8mWrDB9zmKBr66zNYfBinXwwEPuy7gxCRERERKTHzWiepq2+ifDNb2EPPNiu8XyeO3iC+gR+8gj5b39B/X/7X2j8n/87+S9/iZ86BfV6EdLnQgOs8fFiq6jHfoNlYe7cBLhSX3N975eyZmOvVATOPoNlfeWukgaKJl/3FVOxu1VZbqmONaiORSzOgfeFiIiIiEgXzGyf5Syj8t3vw+nT5Dt34sMXZl5dvppmAzEzg7ER0o5P8H17iI//mvDQw4Sf/ozwyKOEW2/t6W2o0v595C+9SDpyCEu9scfwlBjQB2Rcv7KcN8Ny9CIkL6zAWA6jedeD6FU1O2CHuwP+iRfV5UTXq8txIKNRyco7hV1EREREpKRmFpYBFi8mPPAQ4Xs/IH/+6c4WQ92L4JwSPlGHkWHi+8OkfXuw9XcQHniI7Fvfxh54CFu4sJii3SP87FnSRxvwD97F0jTWf5ddazulK8PylwU4pwjKyYv17JnB0r5iKvZEKudWUk4xxXwd2JDhF7uXUN2MSi1SGcvJqwHXVlIiIiIiIlMy87AcArZuPdmPfkLavAk/fQI6HfZa65o9wvAQPnIJP3Uc37ub9NGH2F13Ee5/mPDgg4S1a2HhonJPaW40SJ9sIb33TrGn8hxmVSvC8vW4X95juUoRRFvrl1OjvHsvJwh3BOKJCMN0twqeoP9STqwG6ouq5Xy+RERERERKauZhGbClSwmPPEr2J/+C/De/BGahMnrlGmV3GBvFR0ZIhw9imz/CN28hPfgA4e7m9lPr1mPLl8PgYOmCczp+jPjeO8RPt0DMmZNzZidXlp3rV5ZzL/ZcXlhp3iAxWFRpTs/Oy/k0JbCVht1s+BmHIboXUg0qtZz+kUDqC+QDmo4tIiIiInKj2hKWqVSw224j+zd/Qf7qy3D2ZDP0zaJmtdkAJmqk7VvwPTuwJcuK6dnf/BZ2973Y2nWEdetgYKAcobk+QfrgfdKmDXDuTDnG1CmBYtuo603BhuJ5iM3qcuvGiDf3Xl7QDMy1kk7HroDdFrATXkzF7uIYzaE6lpP3BfK+rJzPl4iIiIhICbUnLAMMDGL33kf2kz8hvfwcfuFc9zpUNx/XYgMunCG9+TLpgz9ga9dj9z9E5a/+inDb7bBkKTY4CNUqhBk1Bp/+UA8fJr3+Kn5gfzGGTjRIKwnLDAa5flW5pRWW8+a6ZSjC3oIMGhWoN8rZBd3BVlNUl484dHmr7Gwi0T+Skw9mNBZWVF0WEREREbkB7QvLgA0MUPnv/nvqu3fC2ChM1LobZlrBMwRo1PD9u/C9O5l48jHC1x6g8md/TvjBH2N33YUtXtKVIea/+x3x060wMjz3q34BbHCKf8nYnIo92Fzo7EA1FIG5HmEklu95c7ABI9wc8JsdP+Qz3KRt5iq1nMELkA9m+FyevSAiIiIi0iZtDctkGeErd5P99E+I507jhw6UY1qx++dCuwXDD+wh/y/H4eUXimna3/9jsh//pFjTPBtV5nqdtGcP6Y1Xrph+PcdLfq1p2FMpnrfC8oIr1ts6xXTshVUYb24vVYKX2ec4sBJsbbO63E0GlqA6Hum/1KC2tK+74xERERER6QHtDctm0N9P9tM/xXdsJ547W1SYSzdV1mFiAq9PwNgo8dQJ0icfE195ifCDH5J994+wNWug2qFQkef4yRPk//if8dMni+7Ocz0oQxGWW9OwbzTcJi+2ivrCsazojr24AhfrUzjgLHGwRUa4JeArHT/tN9YFvIMsdwYu1GkMZMT+3tlWTURERESkG9oblpvC+jsI3/0+fuQQafun4IlShcHPGkYB9Qk4V8PPnSUeOUI6coj08caiIdgDD2G33V7s2dzOh790ifjRBuI7b8L4aKmemo4ximnY/c1Qe6N/5+TQiEX1OEwKxNVQdMcej0X1uWwCsBzCnYF4pvt7Z5tDpZYYuFBnbNUAXrX58doTEREREZmGjoRl+vsJ3/kuvmcX6dAhGLlUwupyk18xt3d8hLRtC757B75rB+Hrj2APPUK4/0HCHXdAtcKMK5iNOn7oIPHlF+D8mWKv6PnAKF5trT2Tb/RpbG0hlTv0TfpDRjEde0kVzteLYF0m3lyjvQ7YAYzR9XBq7gxcatBYVKWRaf2yiIiIiMi1dCYsA+HOu/Bvf5ewfRvpk42QrLyBucUdSxEmxkmfbCLt2Ylt+JDsO9/D//hHhHXrYeUqbMECyKYxjdUdP3WatOED0ofvFaW+kj8lbWHNr4ypv+Kcoqo8EaHvKmvJgxVheSQvvqdMz6dT/H1Xgq0zfJcX67W7nE+zRmLgUgOvGI0BTccWEREREbmajoVlQiA8+k3C4cOkvbtgdLj8YRk+P8baOL5rG/menfjTT1D5sz8n+9FPCPd9DVu5Cvr7p9TAzCcmiFs2k7/4fNH9ulTJrsOMoqpcncafw2EswsLKF6diA2QBllbhgpdvOrYV1eXwcCDujZDT9bDswei71CDvC8SKkaphXr0URURERERuREfbPtuqVYSHv0546JFOPkzntLpop4gNnSP/1X+h/n/8rzT+5j8QP/wAxsentC+ynzhO2rQB3761HF3CZ1No7rM8nUKmU+y3fK2n2r1YuzyQFWG6TMGvWV0OtwVsVfPvX4LxhZToH2lQqcUyDEdEREREpHQ6V1kGyDKyBx6Af/vvmPjDu83dkUpW+bsRzdBsAGdPEV9+jrTxQ+L9DxN+9qdkf/wjbMnSL91yyi9dIr30IumtN4p1yr1QZW+n5pplq07jJkErLMdUTH+/2iFa07HzBKPlXAceHgik0YQPdf9n72Zkza2kYjWQD2RY94clIiIiIlIanQ3LZrBoMeFr91P5F39OfPMVaNR6Nyga0GhAvY6PjhKHLpIOHyS9/hrZT36CPfR17JZbsYGBL/zRtHkz8aMP8ZMnZn/cZRCAPorKamTqU5FbW0hVw9Wr8q29lxdUoOFFuC6L5svd1hu23/AxhwZdn45tDtWxSH9/TuoLavYlIiIiInKFzoZlgBCw1TdR+Yu/JG7bAmdOQt7o3cDcGneKMHQBH75E3L8HP3YIu+9+wte/Qfb1R7B166HaXKA7Mkx64xV8x6fQmOjdv/t0OViwIiy3mn1N4xhMNNctG1efymw0w3KCS6kU052vZEsMu9Owi4af9a6HZaxo9tU3ktMYCDQWVUv3nImIiIiIdEvnwzLAwgWERx8l+/qjxD+8CUMXZ+VhO665npnaGGnzJti7m7R9G75zB+HRb2BfuRtbs4b04QfEjR/i504zL9OIA9kVeyxPVy02t4f6kuP0hSIwT6Ri/+VuB9IrhWZ1+YThl8pRXcYhm4j0X8qJAxVS1u0BiYiIiIiUw+yE5ZDB0mVkP/0Z6dPN+FwJy/D5KvHoCL71Y/Kd2+Ct18m+/0Oyb36L/PHH8BPHLjcMm2+cYhp2/wyPM9Fct+zX6UvXnxUNv+qpXHsvJ7BlVgTm84afKMHYDEJ0+kZzGsMNJpZW51/zORERERGRq5idsAxQqWCPPIotX4WfOF5UZKfQSbonuBdBo1GHA3uIB/fhr7+MX7wAEz28VnsmWrkr43JYnm4WS16sR+73L+96XTEYrMBgLPZfLln2s9sNO2v4GS/Wb5dAaCQWnJ+gsahCqpTsCRMRERER6YKObh31OWbYqlXY/Q9gy1d0Nzh28qGvrB57Ip06gY+PQSxJKuqGRPFKG2BmwdX/f/bu9FmS9Lrv+/c8T2Ytd+19m95mXzAAOCQA0pZIkbTCDjnkCIdfOMLhCP9bfum3DsuWg7IlMSyuIoOSSAECuIogQGIjMMAsvd+lqjKPXzxZ3bd7uqfvUln5ZN3fJ+JiBjM9dZ+blZU3T57znAPs1TA7xBs4CLA9ILuydwfbNsLNgF21NHc5A+ZQ7NWM70wIhzm+IiIiIiIrbrnB8niN8Na72NnzgC2/3HPelfjCgWZTbatO4Zio54mkY34SwVJp9cxfHgMbMGwC5tzKimvgAoTXAza2PDLfTeO14d0J5e4My6l8XURERESkA8sLlgFCIHzwAXbtOsRi+UFMExBYYYRXA7ZuKXCR9s3LsE8Sgxmp0/VhgmVIwfV2mbLMOQSkcw42NuwVg5ukRl+ZxKZx6gzvTYmTOq9jJiIiIiKyZMsNloFw+1Xs9mvY1nZnAYLf8zTG53XDLioiaNX8PY5ggwUc66qG2SEbdxmp2ddmAXHpp/rnC2BnjfBuWMxxWaByZ8bg4YyQ06xqEREREZElW34EsbZGeOvtlF3uosGXgz9y/FPHbhjhnYCdyytYWUVWNKXvJ31AUpOyy9UhX8iAjRJGIa9ybAdGYK+k7tgU5JFdnnfHfjij3KnyWJOIiIiISAc6SbfZ229jt1+FEOik1jOA/8BhN829De8F7ExGgdQK8ugnHx2VXulJKfZhgl8HSoP1IpVj5xT8eZo9bV82bMM6+jQ+X7k3Y/AwlWN7Tg8ZRERERESWpJtg+dIl7OYNbPtM2le69AWA7zv139T4xAlfDoSvBSjJK5haFQYUTRn2iY+vpfFRRykRdtLc5bUIcRFrWBAHIoTXAnbTTr6ne4GsTrOXR/cmBDX7EhEREZFTqJtg+ew5wqtvwLUbKTvYReYqAH8P/BDcnfBmIP56xLaatSg+WAwn7c8tLDX5OinjaPuW50JI2eW1SHZvrkH4YsC28zn33IwwcwaPpgweTHEll0VERETklOmm8LMosNffILz7BXwy7WwvqU8d/5HDj4BRGuUTfjlgZ5txPhkELSuhIGXtF8VJwfLsKNllT2XYawUMYl7vbQ120VJ2ebPrxTwt7teM7jbZZQXMIiIiInKKdBMsm2E3bxHe+wJmi0g3Hncd4J849fdq/L6ngPl2IPxiSGN9cmm61HNWWCrBXmSwNfM0c/korxksZZY3M3xjI9ibRrgcstq7bA7FXsX40wl22KZqIiIiIiIroLPbctvcxG7dwm7dTlm/ThYBvuf4Txz/vqcy4RGENwLh/YBdU8C8EIvOLEMKlo8z2qhossvDDh/SPI9DuBiwG5bKsTOa2mSVM7o7odypsIzWJSIiIiLSpk5zWHbhIuGDnweL3Y31cfA7Tv3dGt/1FBgPm5Ls95sMAVWWqAAAIABJREFUc4bbXHvDSYHyYMGvWzXB8lEftBhQBtgqu2ku93mKZpTUvKohEwbESc3o/kSzl0VERESkJfbMX7vXbbB8/gLhSx/AaNxdsGzABPgQ/G89ZfRqUob5rUD4+YBdUsB8Igczy4s6hvWBEVJH4aSO2BsljGNOn8W0d/lCmrtsZzPq2g3gMLg3ZfBoSjjqMRcREREReQmD1JQ3o4RWt8Hy9jbh3few85cgdlgWG5pRUt+qYYcULM/H+twMhF8J2GU1/Tq2ksWP5XKa7PIh5y0/qzA4O0iBc04KsGuGvWEw63oxB1javzy6N6XYq7pejYiIiIismhCxcgDloktSj6/bVkKDQZq5/NabEDreQzoD/6lT/20NFenIOFBAuBqI/1XErirDfCzzzLKz2Exu5bBfpSjuOEYxzV/OKWCuwbaMcDtg5/Lau4xBsVsxeDgl7td4V9UgIiIiIrKarPnKpPyz22DZDM6eo/jv/nsoBqT0VYcHZgb1n9bUd5qAGZ7MCT5nxF+PhNcDNswsiMlV81bawLBywWXFRnoP9quTvRdbg9TsK4/P42N2xgg/FxYzm3qRDIYPZwwfTgmVPgQiIiIisiCZ3Y9D18EyYKMR4Z13sKuvwHDY9XLwTxz/geOPnpkrG8EupQDGXjNsXQHzoRhPMsuLPl7elGHXJ4jCBwHWi9T0K5eKAQdGYK8adsWeVDlkIkxrBg+nlI+myi6LiIiIyMrqPFgmRuzsecK778HaWtergQr8O45/4k+yywfYNSN8KWCvG7amgPlQAu2cafN9y5P6ZMHkWkzNvnIqx45g20Z4P8Co68V8VrFXMbo/I061f1lEREREVlP3wXIIsLZG+Lmfxza3Uxl219mqn4D/yPGH/tlygAh2IwUxjzPMGWX9suS0d4wqh70TPrEom+zyKHQ38/tZzX55e9NSc7kBWZ1noYJyt2J4f5rPMRMRERERWaDug2WAoiB+8PNw9jzEottg2cArx7/n+E/8swGKk5owXTXCVwL2lj0ZiyTPNx/H1cbb6g67Tdvo476+AeMiBcw5ZZcBGxvhnYBt5bUuNwizmtHdCcVJH1aIiIiIiGQoj2A5BMLb7zSZ5QyWVAAfg/+94/efk11u2AUjfC0Q3grZ7SvNSs1zS9oXwoG96mT7lpsmbowirBV5vY81hDebWd+LHr91Ug7FpGbt032sVsAsIiIiIqslg8g08RjhwgVYX+++E5o32eXvO/4dT8HzC/6crRvxVyPh5wOsk1cwk4P5saxe/NDhxGYOsxPuW3ZgEGGrTE2/cnofB2BvN+XY0P3n4yCHwYMpo3tTrMrpoImIiIiInEw2wTJmxDffxM6chRxG0hj4XU97lz/1Fx8pA4YQvhwIXwzYdtP0S3HDk2NQg7m1GOQ1+5ZPkl2G5r2MsFXkFZDWada3XbcsH8hYDaO7U4r9Kru1iYiIiIgcVz7BMmA3b2Ob2ykLmYMa/GPH/8ZfGgDblhG+ELD3DDufU6TVPautvTLs9B3SvOVFnDfBnjT7yuVtdGAM4VYgXAstH8tjsNQde3h/SpxUipdFREREZCXkFSxfvAgbG5gZWUQqAfyR499tRkm9hJ01wrtNwHwxg/VnwivH6xbLsI3FBctG6o69PYAiq48Hdtmwm5l2YHcYPJwxfDgjzuosPr4iIiIiIieRVzSwuYVtbWGjYffjo+amUH9SP8kuf96y6icBc3gvYGc0hxl4usFXW0He1FOwvIjXt3l2OaZMcw4cGKYu7HYrkzUdZBCnKbs8eDjDTloSLyIiIiLSsayCZdvawi5egs2tfIJlgD2o/6rG7/nLS2A9lWTbu0b4oGn6ldGPsnTNqK3WRkfNVZ4C5kUFadFgs4BBRm9eBXbGsDcM28hoXY8ZxW7F6O6E8tFM85dFREREpNfyCpbPnsWuXIetM/kEmEbq6HzX8T932OXla3OwDSN8KRB/Paay2dNsHiy3ymHSlGIv4kGLk8ZIrZepHDuXuG8Eds2wtw1m5LOuOYNyt2L9o33K3Qo/5ae+iIiIiPRXVsEyRQGbmzBeSwFPTtlloPp2Rf1pfbgGSzUQILweCP8oYOcy3Ge6DMaSgmUWt295zoCNAsZxca95Ug42Nuwtw7Yst0/wY3G/Zu2jfYp97UMQERERkX7K61bbDLv+Smr0NZl2vZrPug/1d5py7MPG8QXYq0b4asBesceZ6lPl4J7l1pp8WZq3PK0XV/7rpGZfa0137BzKih2IYOcMe9+gJMvzydwp9yrWf7pLVMAsIiIiIj2UV7AMhBvXsYuX8cms66V8loN/3/EPHfYP/9/Y0LDXUll2uBkgkmWA05qDwXKbKk8B86Kzy+OYGn7FfMqxbZD2xdt5y/Z8stoZPJwxvjMh7uc270pERERE5PNlFyzbhYvY2bNQZZiNCsBd8B84ftcPf/TqVDobXgvY+4Zdb8pnMwxwFm6ZZdhOyizPFvjNHCgsZZdzKsc2sAvNOZXxnnhzGN6fMLo3JU40UkpERERE+iO7YJnxGmxtwdq465U8XwX1D2v8x4cYJXWQAyMItwPx5yLhaoCixXXmZFnBMqRAedbCTOdBaLLL+UR7RtMZ+1JTjp0jgzirGd2bMngwJcxOwxMiEREREVkF+QXLZtiFC9j1612v5PkCcKcpx/7oiEHZfFbuq0b8lUi40pRkr7p5GfYy4qTpfN/ygl83GKzFNE4qF1XKLttrlmZ6Z1rp7GbEac347oThvYlmMIuIiIhIL+QXLAN24QLh5k2yrdmM4B859XcO2Rn7oKZBE1ch/jeRcD6sftOv+azlthmpfH+2wCZfB8UAW80oqRw0H4/wesCuNP8n0/PILXXIHt2dMLw/1UgpEREREcleJnf9T7Mz57Er13Ff0MzcRTPwh47/0FM59lGzw/OAZhvCPw6ENwIMyTbQObFllmHXNNnlFs4dAwYRtst8yrFrYB3CrUC4FpZ3nI/DoNivGd9pAuau1yMiIiIi8jmyDJZZX4dz57HBMM9gGVJQ8inUf13DcRt3z5s0fRAIr61owDxv8LW0EmFPmeVJTSsH04CNMjX7Cpmcmw5cTeX9Ns5/nnfcr1n7ZMJgZ5b9WkVERETk9MoyWLbNTcLlSzAa5xssG/ie4z9y/Cd+vIzefGbuFcPeM8KtFR0rVbHEYNmgbvYtt6UMKWAuMglMHWzDsBuGXc137/KcuVPsVYw/2afYr/I4hiIiIiIiz8g2WLaLl2G0lm+wDFCDP3Dqv6jx/RPc8RcQXglpbu58rNSqcPDa8XlTp7bfznkme9ZCk6+D32MtwjDms60+gp1Pzb4YkX0AenAGc6EZzCIiIiKSoTzDsuEQzpyBjS2oM96EacAklWL7R57KsY8TPDlQQrgZiB/ENApohbinzLstq6uTe8out3XquKcmX+OYRkrloAbGYDdThjmbIP5FrJnB3DT8ipOMP+ciIiIiciplcqf/jBCwjQ3C1Uupu3HOHNgD/47jeydI5zkwALthhF8MKTu4CizNA/baU9C8DD7/avH7uadgeZRRdtlSOXb4QoBB14s5BEsl2aO7E4b3mhnMuRxLERERETn18gyWAba3sLfeSn+fcym2kUZJ/cDhISnDd9wYrQmYw6uB+CsRW8/45z4KB2rDqyUGy5WngLatb+mkvcujmLLMOZQ9N3O8w+2Qsst92P9uRqyc8b0Jo7uTVBEgIiIiIpKBbINlKweE7TNdL+NwDPy+45867HOy7JgDAcJbgfCVgG1n0kTqhMw5ftfw45gHzG0+bzBLwfI4s6i0gPhzEdvqx/53B8K0ZvBgyvD+VNllEREREclCvrfSZhCPOsC4Iw5MwX/q+K4v5qgOwN427B1LAXPm1egvtcxZy/PvV9Fu4OWessvjJrucAyeVN18z7FbT7Ksn504xqRndn1Ls1wqYRURERKRzmdzhrwb/cVOKvYgb/WYcUHgnYG9ZyhL2JOh5Lme5I43c0373tkv4jdQVe61o9/sc1YB07pzvR3YZUofsYrdidGeCLatkX0RERETkBXpyG90DBv6J43dP0BX7WQ52wQhvB+x1w9Z6HDAvI9N7kDvMlhRwFQbrRV6fJgd7JY0is/X+lPKHyhnemzB8MMW0f1lEREREOpTT7X2/Gakr9qeOP1zgXtka7KIR3gtphm5m22MPbR4sL8s8s7wMwWAY0lcu5cNNOXa4FbCr/ckuA4RZzfiTfeJ+i7OyRUREREReoke30Jmz9OUfOf7Jgu/wDeyqpYZfV5sZun0LIpzlZsXnZd/LCl5jgK1BXp3bZ+m8sVs9K+M3Y7BTMbo/IU77smgRERERWTUKlhfFgQK405RjVwseW+RgZ4z4axG70qMM8zx2rFlyN2xL3bCXJZD2LY9iyjTnoBlrZjcMu92fUmyAOhqjexMGD6eEtruai4iIiIg8h4LlBfMdhzvADos/urHZw/wPDzRu6kkA5O4dlGG3OGf5eaLBRoTQzHjOgYNtWwqYL/QrYLYKhvenFDuzPi1bRERERFaEguVFm4HfcfwjT9nfRYsQrgbCV0PKMPclYK5J2falfs8Ogtb1EsqYTzm2kx6yXDbsbetdhrbYqxjdnzLYmfVu7SIiIiLSbwqWW+D3HP9ZS0GaAyWE1wPh3YBd7Enzpvmc5WUGPO4pYF6m0pq5yxllcedjyG4350uPWA3lzozBgylhpv3LIiIiIrI8fQiz+sWA3bRvmd2WvoeT5ui+EdIs3XMZBWYvsvQ5y83XssZHHfy+awUMQl6frgicJY0hK3sUMBuEqTN4OKN8uMxN7yIiIiJy2uV0O78ajNTI6i74xy02JqqBTQjvpAwzY/IOmJcdLD/+nh0Ey6OQsssxo6DUwYapFNsuWWpG1xcGxcQZ3Z0S95Z9EomIiIjIaaVguQ0O7ED993W7R7gJmO1tI3w55BsAzUddLTsx6J4yy8t+iGAG4wKGMZ9GXwABbNOwLxk27NEoKQB3yr2KtY/3sT6tW0RERER6S8FyGwx8z+HHpICkzXipBtsywvuB8MXwpPw4N10EywDTevkBqwODmILlmNFHzEllzW8HOE++D1dewGpn+GDK4OE0vacZJe5FREREZPVkdCe/YiapDLv+dDlpMNswwgeB8F6AIXkFzPPMctsPDp79nhh01RQqkEqxxzGv9wJSR/X3Q+9GSUF6W9c+3mOwM8OW3bxNRERERE4VBcttqcF3Hf97X04X6JDm6YYPmpFSBXkFQl1llpc9a/mgQbN3OWQWlDqEGwG7Ztg4s7UdQrFfM7o3Je7XfVu6iIiIiPSIguW2GKmh1feBKcsJSCzN0w3vhdTEqY05z0fVlP4+1eBradnl+Z7ljkKqaDCKqeFXThzYgHA7wEV6FywDlE137Djt4eJFREREpBcyu4tfIU2A6D9x/KEvrxO0gb1uhLcCdjajrKGDL7szNTzJLHdxHAwoA6wXWe6vtWtGuBFgjXzOk0MKs5rhgynlzhTLqYmaiIiIiKwMBcttcvCHjn/qyytBno8IetewNwxGZBEIuS/xgcHjb0rKKs+z28vmpOzyOKaS7JzUwBjsuhGuZ7a2wzCj3JsxfDCl2KvwDB9GiIiIiEi/9fAuuWdq4D4pUFzWDb03Db/eDIQ3mrf4NAYTDtQOdQcdsQ8qA2yW3X3/F6nBLhn2qkFJFg9VjsSNcqdieH9KULMvEREREVkwBcttasp/feops7rMgLUCu2iELwXCmyHtm+6Kg8Vmtu+y1QZVx+XowWCrhCLDJxbDphz77bD8zP9JGYSZM3gwY/zJBA8ZHl8RERER6S0Fy8sw6ej7GtgFw75oqeFXlwwYHPj7ZXFP2eWuRUt7l2NmAZ2DbRr2umFb1r8KBIM4ne9f7qLduoiIiIisKgXLyzDhSWZzmXGbAwXYFSN8NWCbHQRD807YgTT/eenBmENV51FivFHkl112oGzKsd+1J/+sZ+KkZu3TfcI0k/daRERERHpPwfIyTFnOrOUXsFFq9hXeCdh6B4tw0hir4fK/NfCkI3bXceowpmZfuWWXAVtvRo5tWS+vClancuzh/Smhi67rIiIiIrJyenhb3EMHM8tdBcwDw75k2C3DRh3s4Y1pDUv/vk6atZyDaLBWpIZfmSzpsdiU7L/edFDvIatrRncnFHszjZMSERERkRNTsLwME1JmuUsOdjY1/LIry88eWmw6Lneh8m67YR80ijAMqelXTprDY18w7JylSoDeMYq9muG9KXGv6w+ciIiIiPRd0fUCTgOfevfBspE6ZN8wwqMAE6h/VLcfNM9j1K7KsI20Z7nr4w8H5i4XsF/DbtV9afgzwpUAb0D9sE7zwfsWNAcY3ZtSF4E6GtUwYJk8JxERERGRflFmeRlm5BGsAcxSwGzvGXbBljcuqKCjWb6Wjr17HqXPDoxC2rucWaAMpNnLrxt22dJ7lsMxO4bhgynDB9q/LCIiIiLHp2C5bcbTe5a75qTZuq8a9gWDNZayNo/ezZxlI42OyuVhBUARmnLsmE95+JyDbTV72y90PJ/6uAxCM05q+GCGW45PJUREREQkdwqW22Y86YadEdswwquB8F5ov9Q2gBXWXdF/7flklqGZOT3PLmcWyDVjvuyGYTcszcbO5bgdgUHav3x/Qrk7yzOLLyIiIiJZU7C8BD7LKFCDx2OU7GwzLuhm0/CrjTXOZywXdHe2uaeAOZc3wUnzlscxBc25cbBtw64bdrGn2WXSOKlit2J8d5LmL4uIiIiIHEGGd+orxkmZ5WXtDT6sZvaxnTfCByGV3EZaCYysMKy0J993maz5nlVmpdhmTXa5yDMYDWCXDLvd3+wyBqFyBg+mDO9PsZzefxERERHJnoLlJfCZp2A5t4CjCZjDq4HwlYBttVSrWpICri7Mj3k9zy5npAywWeT5KazBNo1wOxCuZTgX+gjCzFn/eJ9yV/OXRUREROTwcrxNXy3zhOo8YM7U43LsEYvPwEZSGXZn+0bnHbG7+v4vYKSAea3Ib+8ypFL9c4a9b6mje27H7whsVrP28T5xX+llERERETkcBcttO7hVNsN4CEjrq8HeT/tUF9qIy0mvNzjw/7vgGe1ZnnMgGGwP8pxnPO+c/ooRXgvt7WtfBjPKnRmjuxPiJL/51iIiIqdHhvdkIi+gYHkJbGhpbFLOR9shXAyEN0Jq6rTIBFxnM5YPqDNrsjZnPJm7HPJspmUjwz4wbD3zc/hlvJm/fH9GnNYKmKVd7serGHGwGLEY0jVBRCQnBoSYvo5zz2KGhYCFPt9QSLuMnG7SdKYuwxopWMznfX++AuymEW6FVI69qMCtpLuxUfCkyVfTBTw70WC9SH/NzbwR3M00SsrKPAP6Q7G0f3l4f0r5cNbfn0P641jbKxzKQfoKGY6XE5HTzYHBEBuMjv7fmqWvWMBwjDLM8hT39HuvKDELTVVo9xQst81ToyTKrhdyCHWav2y3jXAjLC6wLOg+yHKy+dA91zjCMOQZMIeUXQ7vBNgmzwcOR1DsVwwfTCkfzbpeiqyqEGC0Bhtb6cbwKNceB9a3sK1zWDnUfaSI5CUEbOscbJ0FP2YZ4mCEXb4BdZ33vZksl9fYcIStb0HRVWfgz1KwvAS2dWAfcA+uCXbJsHcMNjnZeudBVQleereZ3VzLsKHZ1x1gLab5y7lpHvzarSa7vNbj7HKj2Kme7F8WWST3dCN4/TXs/BWIR2xIYGCbZ7Bbb8HGJrjOURHJRF2l69PVm9iZ88cLdB0YrRHe+jIW+5BJkqWpa2z7PHb5OlYOsqmsUrDcNiMFnS3NMG7FEOyqEd5awOlhKats5YL3QR9VH479uEjZ5TyuDU+bjxl7I8AF8lzjEYTaGezMGN2b6qm2LJCDO7Z1lvi1f4xtnkklZUdhBiEQvvxfpszL/HVFRLrkKeMR3voydvOtpoz6OK9TY4MR4c0vY1dvpQyifg+LA+UQu/02dvsdvM6n+k/Bctu8ySzPOwn3IchoyrHD+4FwKZz8LJnvWc6iwVemb4CTxkiNmuxyjr846qYz9vWQsss9n8IUZs7o7pSh9i/LSVnTjGQ2w7bOEn7hHxF/+b895lNxg6oivPFF4ld+jXDtNsxmT76HiEgXJnuE668Tf+WfEm6+DtX0+K8VA3bhCvGf/i/YmQtP7nkyySTKslk6v954n/ALv0q4/hpU+VRVddl2afUZKdDcAsu00/ELWQrywz8M1L9Zww7Hu08zUrA874bdxXXQD3zl/CYYMCpgVMP0BL+E2mRgtw0+Bf5z14s5OZvVrH+0RxVhNpw/0XrOOZLzCLi+PIRbRU66xocCG68TXv9K+kX/xa81D+hOcL2pZoRf+BVY34B/92/wv/w6vvtQ7/epZQfe9zZOgIx/N8ryHbx2hYitb2Lvf5Xin/zP2M03IZYnO2UcMCN88ZcopvtUf/Sb1N/9S9h79EzArIvd6nryO9JGY+yLv0Lx6/8D4c0vHb3XR8sULLfMSsPGPcsszxVgN4xwO1D/bQ17HH39RipBn5ehd7ZnmfTBy+ez91kHs8u7M5h6fueLg51PDeDqn9b4J97r+hQD4n7N2k5g90tfo750sTnmzxx4M7D5KB/r/un3/Ptn9Mvk1IoBG61jF65iV29jl17BNraO3/hmzh1b2yS8+wvY2cv4F75K/eEPDjTE0Xt/KrjDbIpP9mF/DyZ7ByoNFmQ+CmgwgrIEO+LWAVk9BljAihLb2MKu3MBuvZWuceXiGi/ZcET40i9h5y9T/82f4d//a+pPfgqPHjSZRV3nVpIZlANsfQu7cJXw2rvYa+9h126n8v7M7m0ULLfJSCOYRvQ3oCghvB/wR47/2GHKkQI4i4YVHc/nNfIPlOcCKVgeFzCZ5hcsA5SpHNs+sRQs9+0h0HOUd/fw/cj0na9S33oV+0z5TxMgHwyku6qSCIZ99BF27x717dvNeKEO1iKJhTTmaW0TG601s0cXt0fB1raw22/jl64RHtxNr92Ha5ksiONVBdUMZtP0Vdc8nWk+0csnwaAoNa5MnrCQssrDEba5DRvbzb3UAi9AXmMb29jrX8AuXsXf+YDw6D422YM6nzJcWTRLzS8HY9jYxi5cSR2wQz7jog7KO1jO8IAd2QgYkDKrfVSBXTfCx4H6UY1/fMT3JJIy1HFBv9iPbcEX+DYNAqwV8CDTUmwHO2PYq4Z9x/C7GWbAjyjs7TP887+CL/8i05+7AuvrqYx2zuDxU4Euy/nNsAcPiP/5u4SPfsbkH/x6uqHp+fHvPedJgLzAQPnx65mlG4mN7eYf6g0/NQzs8cO6A1+LNL+mPRUI9eT3pbTn8alQp6+qaudBSl2ncVRnL2EXrkGMmHV9zyitc/C6Oa+q2eIfxCxQvsFyXadSo76aZ9vWSJlVo5+/e5p91/aaYR8bft9hwuEuYvP9fAXdZ9Yf71v2/J+aB1JX7FGE3SrPXxgR7Jxhbxn+H/t4Yj8jRsL3v0fx+79DffEi1Vd/CYriQNOR+R/s8M1oztv4l39O8Qe/h49GaY2zWbfrkmQZ1xUFMqdPX6qiZDU9vq61Hbza4y0HTCf4/KTXub+ant3u1sZDwAXKNlj26YT67t2ul3EyljJwvc0qz9VNJvENw+4b/r0jXL2azHLnwTI8CZjz/TwmDkSDzQL2Mi1DqsHWjPBuwL/r+D3vfXdsL0uKr/8Jvr6OX75C/ebbWXVjxAy7f5/id3+H4j/8e2a/+mtksX9aRFqkDJucMgc7/+vclwzkEMI8394+fPJx+vtM0/Kfa56QOtvxft1F8abZ1xsBWz/k2KBmNi9F89cuL3rzrDIdr+OwoqV9y2XGJbYxPUQJP9+MF+t5sAwO032Kr/8xg//rn8HuTj6BqANVRfkb/5z4H/8dTPcghuw6RoqIiIisknzDuP09/JOP+30j2IyNyjbYOQpP5eT2imFvHvKJn/Nkz3bXnhof1RNFgI2y61W8WPMwJLwZsEuWxoP1XQjY/QeEb32T4nd+KzWb6JoZPhgQv/51ij/4fcKHP8FiTGsLyiyLiIiItCWDO8EXmE7h3v1mVEsPWTM2aqPH+5Wfw7YtBUc3DV5WoVqBbRq2lsl7WNOv9yGQSrGLTI7f8xgwTh3TbSvjdR6F14QP/57yN/8V9vFHTefZjhhQV4QPf8zgn//vhL/7DjadpgBZXWtFREREWpVnsOyOT6f47l4emZ3jMGBAKlleFU4aG3TJCF8IqXHZy4LPLWBtCWt7mXmXPe/DpuUDBk2jr8wfGoXXAnbFUhVBnx5IPI+B7e0Q//ovKf7oD7H9/e6CUgd7cJ/yX/9L4je/gT16mPqgmOEh0KtzWURERKRn8oxEqwr2p/hk1t/MSUwNkBh3vZAFc2AI4VbAbn9O6a2RjsGGYcNDBNXL0LcybEjHcT3z7DLABthtS3v0V4TtPErZ5Q9/0k1nfjPY3SH+xZ9T/ov/G3v4cP4vmsxywLVnWURERKQ1eQbLsxns7WGzTOfMvoyDDQy70GTaVid+SOYjsb5q2LkXdPt20s++QQqou76fn5fCd72O41grUoY55/OoArtp2DVL+9T7zgy8Jn7rPxG//ifY/XvLr3KpKsIPfkDxr/9fwt99B/zAGDELqQw784oDERERkT7LNFie4ns7+HxvXh+zy2PgGv0Mzl6mqWQONwLhrZAy6M/Z1mlrho2bYDqH45DxwPMXclJWeRTTX3Ndv6ctB/ZK8wAlo4lLx+apO/bg//kNwo9/srxg2R1CJPz0pxR/8PuU//bfwmj49J9pMssaHSUiIiLSnjyD5ckEdh7BrMO9gsc1Hw83Brt8yBFLfVWDvWdPOiH7M/9u2/LohD33OLOcacD5Ik7KLg8zbug0b5B+pTkfViFYBigi8a/+gvjn38TufLKcgLnpch2/9Q3Kf/kbMNn97J8xw8O8eWDPzmcRERGRnii6XsDz1A8e4h9/kvYu13W/bgZrYAh2zrAzmQY2i9JkE8MXAr4o3Z3WAAAgAElEQVTn+I/86XLns8CQfMqH3aHu0bk056R5y8MIezVM63yO6UEOtmXY1XTu+yPPc51H5IVR/O5vU79yndk/+OVUAm1tBc0OZsQ/+kOK3/7/CB/9NM1T/gzD5mt4HMCvwMEWkWcsqSJq/j1yfSArp0cfqwDl+ObXnIyvPVkGy0yn+M4OPptiffvAeFN+fL7JtnbQF2ipjFR6+2PDP3bYP/DvzpBRZrnJ8vftfJozYBxhr4JJpsEyQGgeFF0z/Nueald6esgfi5HwnW8Tv/kNqldfo758OY22e9xTYYFvhkH48EOK3/tt4l/+OXj9gsDc8dkEv/cp7O4++Y9FZKVYWUIsoSjTg7M2RtnNR9HVVfPVtzmL0n/N1qLQPIxWP47Tweb/4wt7SGItBN15BstNgy9m034GN1vABU7H7xonNfu6ZthPDP+hpz3KgZRZz2qUkGe0lmMYhBQw78zy/TnqZrb2DYPvsTIPi2znEfEbf0Ionen1S/jOQ2w2YZEBamoFYJTf+wnFN76F3bv7/LJvM3x/h+rb32T2L/43wn5PGyGKyOczoBzCeAM7dwm7dptw9SYMxymoPfHrB/Aav38H//vv4Z98CLsPYTpJDQX1AE6WxUJ6IDQY4rHEYkTn34oz0oO6coBdvEa4fAMG8w6xx7vJNTNifF7X4ZPJN1ieTKCqc91V/XxGmkN8ZoWaHB2SXUrNnfxDf1KKvmFpFnMW5iVm3a7iRGJTij0MqRw7R87j/fp2wfAfe78+wy8SjPDdvyHc+RF+fsCs3lt81YtDuVNRfLSPTXhxqbcBe4+ov/NnzO7+NaHK9FwQkZMLEUZr2PkrhDe+CF/+L7C3voSNN072umb4/i7+0x9R//U3qP/i6/hPfwg7D2E2aYLxPv/ClF4xS8FyOWyqKBYf8EhODpReD0eEm2/g736F8OaXsDPnm/ufo99jhRAoisWHtnkGy9UsPdmEfmWWHWyc9mva2B53jV55dQqMw7WAf99TwLxBGiGUUxlutPTVV+5p7/JaCXv7L//zXYnANoTbgepH1ZOmd31mhlU1xf1dyqKmOrv4/QVhVrP2YEZRRyx8/ofGLUBRQDmAl/xZEem56T7+4+9R/exH+N/9FfG//h+JX/v1FFQc5x6pGY3nP/wOs9/7Deqv/z7s76bAPON9g7LiphPYfZTPPaMsiVP93V9R/9kfE//J/0T8hV/Fzlw49quFFhqx5pnz2XkE9+9ifduzUAHbpMZWeT6GaE8ALoDdNphC2AqpuVdOZ1gMTbOknp1XB0VL2eWcg/4abGjYLcurwdsCxGnN8OEEW3CjOKtgcH9K+Wi28NcWkb5r9nPWNfUPv8v0n/2v1J/+LO0tPk5wGwL+yU+p/sNvUf/hv4LJfgq8FShLDkxfp+vLoBzgn/6M6rf+T+pv/iFM9zgubyHJmlMo85jfv4d//FN6d5NdgV1omnudlqzyXNMJOdwOqQT9MunsyqZC1FKAGYxeP7YMpDLszSLvqosInIXwWkgPjjJe6qEZWA3FXs3o7uL2CVvtlLtTNj7exw57nJpfMKfpEiMipN8Bj+5R/Zv/A7/7MQdmIh6OO76/T/XHv0v9p/8eikEKxHP+fSIiq80dioh/9GOq//QHVN/+Fgyy6RCcabD86BF+907vbrCtTHuVbfOU3sIa2FkjfC1gbxoWLZ/30GiCZfJZ03E46edYK/LOLtN8Ht6y1OQt76UenoFVzuDBlDitF3IuxUnN+M7kyHuPfVWOqYgcgYEF6m//aeqGX1VHuw6FAHd+hv/ou/idj1bn2iwiPZdiBv/wh/gPvpOubce4yWqjG3aWwTI7j/C7d/v1pLMGzqTsKiX9DsiOy4EhhDcC4VzI6+wKBzPLPWekztijzPeXRbCbzbzxvj+kOMAcyv2Kwf0TjrYzCNOawYNUfu3HuWtdkWMqIoeVgmUe3E37jI86SioW+Mcfpqz0bNLOEkVEjiNG/OF9/NOfpe0hx7gvOj1l2Lu7+IMHXS/jyOyywWbXq+iQk86oDVLpbU5x3DxQzmlNJxENNstU7pyrQOqIfuNAw7sVYZUzujshTI6/z8AqZ/BoxvDBFDvqy8z3+ojIqWR1nTpWH/XGMEb8/p3USElEJCdmUE1hfxevjjd79HQEy+5pbFTO3X6fZaTA4IrBmIz26XbkiFuolqKwHM/247OmFLsM+QZNzXkQboU0e3yVjj9Q7lUMdmaE6ngne7lbMXwwpdivj/wephLsXN94EVmOo14DPP3umOylqSMiIlk6fhBxOoLl6RQmsxRw9uhe0MYG58BGq5VBWxlFU4a9Su9NEWAcU8Y815+rAi6Bnbf02ejRZ/pl3Izh/Slx/+gD1cMs7Xsud4643/Cp73+8/05ETq+0cyfHJ9oiIgdkdI+TXbDsO49gdzdd0XPej3lQTRqbdKZpZiR5cdLIqL6cT4fmsFGm/cu5/mgONrSUXd4GZuS71qMyKHcqBg9nhGl9pOB1fGefwcMZVvnxj4dKsUVERERalV2wzO4e7B9vU3cnnDQy6hVLM2X1sDZD/iSzvEqclF3Oee7yfFnXSSPFYKW2KRgweDSj3Dtkdtmg3JkxeDhL3bSP+bY5li41ut6IiIiItCa/YPneHfzRgxQE9IEBJdhVwwaZBiynndmTsVGrJgBrMWWXcw2c6qbR1yVL3eJXiBvE/ZpyZ0YxeXnwG6Y140/3iSdoDAY8nrMsIiIiIu3JLnyoP/oYv38PGxb9GB0VwLYNO2upM3EPlnyqzDt0xx6V9R/VKKbscs4/nqVu8XbVHv//VWHulDsV5aPZ537+Q+WM70wod2ZYfcILxQodPxEREZFcZRcs+927+MOHEHOeidNw0izZK81oHN3A5imG1Ziv/CLRYBhgEPN9WFMBZ5uO8Su4XSHuVwwezV6YMTZ3it0qjZs6ej+w5zNW7jiKiIiI5CS7YJndPdjb63oVh1eC3Wiyyiscj/VXs195lWYsP88wwjjzRl9rBhebvcsrtG8ZwGoo9prs8nPE/Tp1zj5p+fUBipNFRERE2pVXsOyeAuX9yZP/nzNLo6LsuinLk6t5E6xVziw7ad7yKKYHAzmazyI/b9it1QuWsbQfefhgSpg9+eEcCJP0z4f3J/iCzkNn/vBHFx0RERGRtuQXLNc1eJ1/oAypBHvD0sioTGOUU894MlqpB6fUsQVrsssZ7/WvU3bZrlnKMq8Ycyj2a0b3po+vB+Yw2JkxvD8lLPIBweodPhEREZHs5BUs7+/Do4cw2e96JS9Xk7pfXyTNVtbNa6YsZVtX/f3xptx8rYCQ18f6KRFs07DLq/mGhFnN6M6kmbtsjwPlODnaHOZDWc1DKCIiIpKNrO6qfW8X330I0/1+ZAHX0siolSspXSXzsVGnQWgafY2y+lg/zUgPl851vZD2xFnN6P6UsgmUy91FdfRKHMDS2KpTcmaLiIiIdKLoegFPmUxgfxemE7KPliPYumHnLXX6lTxFS92wV3Vs1LMKg40C9qp8P0IFaevCqnIY3psS99L8Zat84VFtemtX+BiKiIiIZCCrYNlnM9jbh+k03xv9uQGwnfYsU6P71hwZKcsaT1EKLljat1xMYJrhh8jBouFnfKX3kcf9mjip0zzlNs494/Sc0yIiIiIdyape02ZTfH8vBc05a8bg2LlmZqzkx0nBxHqR2Vm+BGVIAXOuwWgBtmXpUd2KBnzmngLlNl4by/atFREREVkleYURsyqVYuccLBup7HoD7KIpw5MrI2VZ12K3Y6PMIMTlloEbqRS7yHTucgBGwFrXC+kvz/KNFREREVktmQXLU9jbw6ZTss2bePqyTYPzZLvMU88MBjF9dabGrCSUlzAbsNSP2yhCmWn5uYENjbB5CkZ6tcBxcMdyHREmIiIisiKyCpa9qmA6ybsM28FGabaybZhu9HMVmzFKXXHHwpgwvEIYXsHrfZbaNn3+88eQ3zlqQATOktkVqD8MwPN7a0VERERWSV63qlWNt7TPb2Ec2Gq+ArpbzVVhMI5p/vDSOZhhg0uE4XXwKXgHLdPHRToOuWn2k9t5y6zFYD+kQFmRsoiIiEjbsguWqZv4JuMSQztv2LY9aSIleQkGg5DKkDs6jaw8TxjdwIpN6um95S/ASTOXByG3T/ljds6wHIP5HjBPXyIiIiLSnrxuo2czqJdYqnpUTfmonTfYZKlVtXJITsqmzkdGdbAAi+vE8Q3C8BJQ4bP7dPJUJdDsXQ55PXxq9v2zTRrBltdVqB/mwfJpmR8uIiIi0oG8blMn+1B1UK56WM1+ZbbBxqZgOVeFwTDSTdrfCKPrhOFVLAzwahfq3W6CGicFy8OQZ1A1bj5HXfZg66vMq29EREREVkFewfL+PlQZN/eqga1mRmzZ9WLkuQJNCXY32VQrzhDHr2HFNl7P8GoXr/bp5KPmwKB5cNBJlv3z2dDS+CgFy0dmuMqwRURERFqWX7A8q/LMggHMwK4YbKD5yjlyUpA86CY4tDim2P45rNhI/6Dew6tHS1/H04tqguVhV83OXsBIV59tUpOvjJbWB2nPsg6aiIiISJuyCpZ9sp/GR+Uqgl2wVDqq+9Q8DZqmVkt9fxwLQ+LaW4TyPFhKlXq9n4Jlm2/S7UgZUil2Tk93modNtm1Y1JaGI2tOKV2GRERERNqTVbDM/iTrPcu2ZthZS02JdJeaHyNlUAfLPK1ToBxGrxDGt8AOzEKqd6F6SKdBqpOy7PPjktN566RZy4OuF9JTtWf1/ENERERk1eQVLO/tQjXNswzbgAvAOrkdNYEDJdjL7ILtQJHGRI1vY3HtwL+r8WovNfjqOqIJpL3Lo8w2B3vKLOvh0zG49iyLiIiItC2rsK++ewcm+1jIMFgG7GJzY5/n8k45T9nTYpmntGHldup+XV7kScRn4DO83sXr/SWu5wUciAHGIb/hvBvAiMyuRPnTnmURERGR9mV1i+offYLv7aUb+wzZOcMKRcpZsma2crGs/eSOxTFx9Aph9MrT1RBmeLWfssqeybaCeSl2mVEptqeO2DY2Nfk6jo63wouIiIisuqyiUt/PeM5ySMEyEd2g5qi01MRqaVUJThjdIIxvYnHEsyeFV4+g2sVzOVmMlHVfL/OqjAjARjO/XI4mk1NLREREZFVlFSwz2YdZpnOWS2ALzYTNkTuMihQMLiPm8ppQXiKMbmBx8zkjmQyvHuH1LpbLR8xJn/b1jGYuN5lR27BUiq3g7/C8mbWsgyYiIiLSmkzu5EkBx2SSguWc9uI1QYZtGQzJ6YjJQevF0oJAK7aJG+9gxfZz/q2n/crVI6gnYBmdMGZpBvUw5NFEz4AK2DRYO/DP5KWM+b7lrlciIiIisroyupMHJlOoMxy42gTLNjDdzOeoCMsrwbaSuP4GNriAhZLnpkPrKVR7uE/bX89RRUsPFow8Mrk12DjtXdZn67BM+5VFREREliCfYNkd6irNDs2MxWa+cj5HS+asGYnUegm2g5WE4TXC6DoWXjwcOHXB3gOvyTICXCtSI7QcOKnDfNn1QvrDD/5NfpdLERERkZWRTfhn7s2NX4Z3fwVwniyXdurN9+FCi++PgxWE8ixx/U0srvPCINgiPnsI9R5Qt7mo4xs0mfi4rM7hn8NJfQAiWT5XyFZTgt312yciIiKyyrIJln06bTJxGSqBc83f6+40L9FgXLT8TYxQbBLGtwnDg/OUn7sgfHa/ySy3vKzjMnuSXe560+s8WA5gipYPxyDtjffO3z4RERGRVZZHsOyO37sL1YSUjcuEkW7kR2BrupHPTrCUJS3bLMF2LIywwVXi+MahHuj47EHat5yr2tMDhtLIIp0beBwwr4Ql/RwZvHMiIiIiKy2P21N3uHsX6lnKeuWULSnAxoat69Y0K07KKq8VLXZ2TidiGF8nrr8J9rKNtQZe4dUD3Cd5RzPFfK93Bp+3VQmWA7AGdtlaf+ZngNX+OMksIiIiIouXze2p7zyCaYZjowo0XzlHxpOAr61zxmkaer2CxTEvj0ocrx7i9aRZU8bRshkMi5SZ79q8giOXDt3HFcE2Dbti7W9X92f+KiIiIiILl8GdMimw2N2B2Xx0VCZ3gDVYYdh2M9Ym49jn1IkGw9iUErfAa6w8QxjfwopzHPbN99m9vEuw59xTk69B7PYqYKTvP//qswi2YSmzvITA3+YNEXVdEhEREWlFNrenvrMD02lemeWa1NzrTNcLkc8YBFiL7c1WjgPi2i3C4BIWhhwu8nHq6V2gohcRTLQUMJfdXgYsGBZ7PprN04g5tsEutvyzzE8tdyzDUXsiIiIiqyKP21N3yDFYBhiCnelB4HOahKb8etRWbXwgDF8hjG4csvwawHGv8ekd3L3FfdQLZDRjpGK3xRzzPcs9OGQv1DxYszOGbVmaHd3uVnqoIcyUWRYRERFpSx7BMuC7O/isCZZziZcNGAGb5LOm0849BXij2M6cYAtYuUWx/g4WPmee8vPUszRjOaeO7i9TBhi12U38EA42+Orr58xJVShbwBBYo/Wra3AnTnt0romIiIj0TB7B8mf2LGegae71uBN2X2/iV00wWC+axl6LfnHHwjpx4z1scA7sCNGb11DvpK9c54U/a95RfBhTOXYXVR3zPcur0A17QHqwFsDOWfvBfw1h0pNzTURERKSH8rk9nUygqkh3l5lEpiNgA5U55sJ5EtjFRb8pNRbXiOMbxOG1JuA97HmYujn57CHusyP8d5komhFcXZ7okX53nI9gQyOM0yXVzljrP4+5E2d13842ERERkd7IJlj2/YqUkskkMvUmq7yZyXokZT7XWxh35A5WYIPLhLXXwYqj/fcGUFNP7xwxyM6A82QP+MIfQBzBPFju0aF7SgTGpAdsVcosW2mtPn+wGsK0zur5ooiIiMgqySNYrmuYzMftZBKcGmnf4Qa92oK60oYRxhGKBZ+2FgiDy8TxTSyuc+TIww2vK3x29+j/bQ6CpQcQ4w4vB5E007yHhw9IgfGY9DPUTRl22fI3dSdMHcutKaKIiIjIisgjWHZPJdi53PQ18bqtGbZhaRKQdMuAjaKFMUeOFdvE0Q3C4ALHi9Zq3Cf47H7z/zN54HMUsdkL3pWi+eojJ3XNHx+Yr7xJux2xSXOWQ+VYTyaViYiIiPRN98GyezMvNKNgGdKRWSNli5RZ7l4ZUrC80DPWIQzSiKjhZbDhMV+mhmoPr3YXubjlCgbjIu1f7oBF628ZtpPKr9eavzdg3ATPbe9brtO+ZRERERFZvO6DZQAcz6ULdsMGhq1ZGgMj3XGaBxfNXuVF7ml3iMNXiOPrTfn1cc5Bw32aRkb5lF6n+MpmJFcXP0IEK/rbdd5GTdd8Ayw1+2KdVh8AmENwCNOMxu2JiIiIrJA8gmXncYY5CzWpJHTY7EWU7hhpj/JWsfjmb2FAGL+GxQ1OFG3UU7x60Kwvk3P4uNaLbhp9FfQzszw/VKPma55ZjmAblh4AtCT19XLitNK+ZREREZEW5BEsQzM2KiPzm99Ir5OFvRctNfUaLLKe1cEicf1NrNwGO9lrp/3KDxa0to6Nm33hyz7ne97gizEpk3xw/dukJl9tFs24Effr/h43ERERkYzlESy7Q51ZZnk+Bka6NQiwUS42eLMCK88SxrewUHLiSKOepMzyKjxVKSzNsQ5L/Fmc/s5Znq99TNqy4Qf++RlSk6+2LmvNW1RMamWWRURERFqQR7CMN/NpM1E3nbDHKxD89Fm0NC5qGBYXcHiN2ZA4vo0Vm5wswJ0PuK3xenLC18qENcc8Lnn/cCBllvt4CAfNnuXiwFxlJ+1hHtHqVdZwwqzGMrp8ioiIiKyKTIJl0qzlXLIjzmczRbJ8g5BKsBeW5XQIJTY4Rxhdx2xRp/88aF4Rw7jcUux5E7dITlekw6lToMyIp0dfHXzg1mbG3MEqxyo1+RIRERFZtDxuTd1TsJyL2Nzolv3tztt7wVJn5tEiIw3Diu00KiquL+zhjGG9TIg+lzuUloLlJZZiW2gys3lckQ6vebBm42fW3sxeZkzat9wiqzzNW87lYaOIiIjIisjj1tTBqxrP5WavIN3ktrnfUF7MSaXXo7jQzswWhoTBJcLwCvhsYa+7csxSVn+ZD4sK0uctjyvS0azz/CqUZla7Dds9juZNKbauVSIiIiILldGtqaeb9AxSdFZYKq3sc3fePnNP5deLzCp7hZXnCaNXsDhe3OuuqkFI2eVlfADmTbLKlGHuFU8johjxdNfr5sewDUsP3lplxGn9ZGyViIiIiCxE98Gye8oo15l0dD24X7n7o3P6zAPl8QLn/bpjxSZhdJVQns2rmVyuBs24rmUEr/NgecDT+377IDSNvF5QhfI4kG4zs4wTJqnnQwZXUBEREZGVkUk4mNl+u3Va32coL2AG60UqAV6gMLxGGFwEU7nAoQRSZrkIy2m8Z6TP3LD9b7UwRuprMErVKJ85rZx0LRk/+fNtidMaq3Vei4iIiCxSHsGyA3XV9SqS+ciXebCsssblme9VXmhWucbKbcLwGhY3FvOap4GRHlgMA8v6EFhh/QqWIWWUxzw/I+6kPcvPNv9aMMeIU9f4KBEREZEFyyNYBqgzGb/jwAbKLHfBSFnlQUgZ5oW8ZiCObmDlWbCSLM6xPnCaYDku74FR0Yxh6tNbNG7WHHl+GfbQYI3W+x+EWU2oXc/2RERERBYoi2DZ8FTq2fVN8rwpz8HMsixPGVKwvLC+XkYom5nKYcjTHZjkpULT5KtYUggW6dds84r0YG1AunY87zCVKbPcakdsA6ubWcs6xUVEREQWJotgGQeqajl7Iw9jA81YXrZgsBZTVnkh+THHrCCsv40VW2B5nOq98rgUO7b72Zy/3T0Mlm3rJaXjkVSm/Wy37AUznDhL+5aVXxYRERFZjDwiiKYbdtLxjV4gNeXpW1fevisNtgcLKr9O7ZVtcJ44vt0Eyn2JwDJThPQQYxkZy5KlNMNamBrY4vOrUObd9TfbXYq7YVNPTb40cFlERERkIfIIlvE8xvk4qbPtoN2GPPKMaGmm8mBRB92wYou49vqCXu8Ui01meRkjpCIpA9sHTYsF27BUhfIidVOGvdlypYpBqGpCpUBZREREZFGyCQnd6yzKsG3NNGN52QYB1he1SbzG4pgwuoINL6OM8gIUIT3MaJPzpMFXX1hThv2yzPKItLc50lrG3M0I0zrtWxYRERGRhcgjJHSgrrsNa+bffJ0nDXukffPM5WhRp2LAijOE0SuY9WkDbMYCqRS75c+ExeZBVV8+ewNSp+sXdMKG5p+XzUO4NpsGGsSZEypXFbaIiIjIgmQSLDtUnrpid8w2rdUMkBzgpKzyeFFlvo7FDcLwMqE4iwLlBTFgbYGzr18kkgLQPK5Kn894uhP2i3jzEGDUjJFq6xAaWJWCZZ32IiIiIouRyW2pY/M9y10GqU1ZpQV1wl6KQCrvHS+ixNeBkALl4RUILQ+2PU3MYBhSOXabn08jZV9zH4ftpGvFth1uzFlsysvXaLcjdjM+yjLYziIiIiKyCjIIlptMSC43eIPmr5ksZ2W5p/LrcYS4gNPQa6zYIIyuYuWZfM6nVREslcpbiw+SQjOy7fNGMeXCwM4cMlg20r7lLdJs5jY0TbCtcu1bFhEREVmQDIJlAG8afHW8DONwN79ycgfnKi8osA2Dq1jcRjX0LTBrvxQ7kPb3juxxt+ksGWmtZ5q//7x1zg/XsGkGNmtxWe6Eqpm1rI+AiIiIyIl1Hyw7UFX4/h5et5V2OQLtV27fwaxysZhT0IpNwvAyFsdLH0OWc1y3MPP3rM1S7KYM29Z7sA0igJ0z7JCZdhtYykS3vaymyddi5pWLiIiInG4ZBMuOT6f47g7kECwXXS/gNDBYj1Au4vRzoCKMrmHlNlgXpQEGdgpOnNjsXY4tBbNOeli1Rd4PrIw05mrrCIsc8OTnavFBQKhqwiz3Jw0iIiIi/dB9sAxQ1TCd5rHPVJnl9g0DjBdX0mtWEkbXsTBayOsdfQFFd9972UYBivY+IBYsNc7KmR1o2BV4efA7nyG93vL4KMDqtG85+8y8iIiISA/kESwD1Hnc4Fnb43FOu2CwVaa9yicuFXWwiA0uYeW5DrK7xjyrbHFMFidw24ZNRUAbH5Mms2xbltOV6bMCMCY1Igsc7lhY8+fXD/nnj8ubOcu6jImIiIicWPe3pO7NV00Wwca8ijeDpawcA4YGm+WC5iobFkbE8WtYJ+XXzSpOU7BchvTVxuGeB3nrpO0QOQZ8aUIZtmbY4Ahzk+f7sef7lts6Vczw7q/qIiIiIishj9sqd6gz6YZ92EyRHI2Tyq43y8WMioKU0S22CKMrtL4Z9IWa7HYYN99+xU8es1QVUCyui/nTrw+MwIaZZpe9qT45x9GuFQez5i2eIm6oE7aIiIjIguRzO1rXKbvc5b7lebAsixcNRhE2ShYT1NZYGBJGNyAM6TRItQLCWnfff6k87TkftLS5PzT7gQfk++BqDOG1cLQ26POs+VkeV++3wmxBVRsiIiIikkdo6I7Xyx338xnzG9g8jshqcaCcl18vKqscsXKbMLzSeWM4s4jFIdgpOHmclFUehPaCspIne3u7rjZ51qAZGXX+6B3BzZrxUS3uGPAArrFRIiIiIgvR/d29GZQFtrYGsbt9p0+VYOtec7HmWeVxZDHRj2NhHSsv5rFX2ALYALNFZc0zFyw9/BjY4h9UGKlcedPyC5YdbMOwK03m+4j/LQZsNmXcLV1jXHuWRURERBam+9sqMxiPsStXYHDUO9BFr4UcjsjqGUVYX9yoKDCsPEsYXiaPN8ywUEI8JeOjjJRZHoZ2gllrGmHl9tDKwLYNe+UYCzvQGIwB7QXLwVJmOYcxfCIiIiI9132kEUIKlq/ewMpht5kkZZUXa16yuxZTwLyQ99axMCaU5wnFGbJIPVrAQpmafAFZrKlN8/d12B69qFQAACAASURBVEIlyPyB1XYqW87mUDpYadg5g4scfV3zn2tEGjvVwpXXSWXYGVzVRURERFZC97dVZtj/z96dPkmWXvd9/57n3ptL7d3Ve/fsmBkMBjuxEgKhAYYgQBAUSYmkGZYd8qIIv5Ht0B/iN/4fHH7jcNhyyJTDkkxKIBUSSYAgSGwDYDB7z0zvteVyn+MXz82uBma6u7LqZubNzN8nojCY6a6sm5k3b93znPOcU7SwM9uQ11Wme0y60ayZQyekQLmurLKDtU5hrdMQpj1X+UECli1Lky/S+3m3K3aNjzt6rA3S3t4GBcusA2eqBmTHEUjjpkYFCBPJyqfMstb8RERERE6uGaFhCNiFs9BupbLsWTSoMZRZrpOTRkSt5SkDWUtgYBBahNYFLN8CL+t40JNzxwlYtsFSnUB5qPah18yqEUsNm7Vs56v9yic5l0f7sSdy5TU8NHCvt4iIiMicakawbIZdeRzWNyGb3R2yjW40pQaeul+3s/peUx8SWmew4lTaI9wYnjod56vL0REbqj24VmPTtntYaqRFUwoHDKxbdcBeB07auP8U6cpbd0BrmrMsIiIiUqdm3NmHQHjqKWx1fbbBhhp81aeossp5vS9o6FzG8iZmcA2yFZo7HHgCAmkxJJ/A8y2q7HITGowPgW1SCXb7hM911CQs1L8f2+9WxyzJ+SciIiIyYc0IDc2w06dhZR3yYjaxhuYs18eqmcqtUON76YTWNlacxkKb2UdQv8yw0K4y3ktyElk1QqruRl+jt/Z8yujOXAS7VDX3OsnhVM/L1qtFgLqfmlWjo2p+WBEREZFl1Zy7+rzATm1BZwbjd+yef2rf8skYaf7uWp7KdOt6WMsInSvNbaJlBqGA0FquzF4wWMnTc64zSitJ+4PXanzM43CgXe1XXq/hfXVgNT1m3deZuzOWl+j0ExEREZmk5gTLZoRHH8XW1yHOIDeiQLkemcF6Xu9eZQzL1gidS5g1oS73/Znl1fioJTqJzKBbzdCu82mXYGeqAHWWe5cd7KJhp2oqCffUTdvalrp916V67b3qhi0iIiIiJ9ecYBkITz+LbZ3Gy5N20DkmA6trxNGyagXYaNVafm2WE9qXUrdpm0D35VqkGv7QOotZTlMD+toZ0A6pmqDuj846sFXtE57Vy9mB8KFQT2OvkTZp1nLdp7LZ4YLfkpx+IiIiIpPUqGCZ06eh2wWf0Z3eqIRR8fL4nNTUazWvf/ZuaBO6j1fN3xocBVhGtvoMVmwB2ezO42kzUiVBjWX3o4Ur27ZUtjzt9TMHQgqUw1Mh7Z2u8+1cpd7mZV41+KrzPRARERFZcs0KlldXsNUuVuTT3/epMuyTCaQxQqt5jWX0joU2oX0WK5rYAfuXOYSCbOVpQuv0cu1dXsnTXO2a2RmDTaa7RuKkbtyXjPCpAJ0af351jbFVw4qaz48w6oitEXgiIiIidWhUsGzrG9iZM2nf8rQDDQcieOmNTl42kgOd7DCrXKdsjdB+hIadqvfnTmifJXQewfJNpp8SnQEnld/XPUKqTOOjwlaAVr0P/UAZ2FkjfCakec91X4qcVNZd83OKwaoZy7qAiYiIiNShWRHIxgacOQ9r60w9NeJASZqpKuPJSFnlWkcIOWYFId/AWtvMTwDgYC1C5xKhfR6sPesDmo7c0ledZcBVJ2rOkBpsRSZ/GjjYlhGeCYQrdY4++8WfwSq1B8se1NxLREREpE6NCpatu4JtnoaVtenGyl59DauveYnLmqKbp686M4vuWLaCFdtYmME4sRPxqnv35RQwLwMj7VkPNe7tHZUsXzDCRwL25D3jm+r8jI6C8Bxs2whPB+ypqvv1hNiaHQbLNXxs7O6e5ZM/loiIiIgksxzK8l5ZBhubsLpW7buz6TVJ8qoEW5nl8QRS+XW75rt0C1ixRWifmdvuvqHYhm4fH9zCy9ss9EZStxQs5wYDp7bn6imAtU3DLhn+khN/FuE2eL+GLROh6ra9mrLX9ogRHg+wRao0mVRmeQWsZXioaduHuzLLIiIiIjVrVrBshp0/j506jQ/L6WeXR5llORp36BZpv3JWc7fg0IF8C7J18Dnd92sFVpwhW3mC4Z3vsdD7l92hsGrecs0f3EjaR3zRsPOGPW749534WsTv+PjVIFY9XqvKVF8Ce6J67K4dLs5M8vpTkBqHZdR3zbHDIhmFzCIiIiIn16xgGQhPPYldvIjv9bDVKe73HO1ZHnB4tzmH2cypCgYbRcom1vlaeUkotgit01jI53gEU8SyDqH7KGFwjXjwOgsdyuRVZnkSFSF++GWPpCyzvW7E70XiSxF2jvAYo7LudYNHSeXWlw3bsLsN/u7+rAmzwlJ2uTB84Cc/JTztWU57xnXxEhEREalD44JltrZSKfYsbvYc/MCxuKDBTK0M1qvy69pnuxrWOoflpxbint/CCvn6RxkMb+PDHRbiSb2frMosB9LC0yQYKai1lGkOW4Hw0YDvHPE1Lar9wqsps0zGbBL+AaxjeMthl1rWT/xuN2wRERERqUPjgmVrtbH1VVjpzCamOGBhY5naOCnIWM9TcFTrYzuWrxOKLSy0WYg3wwKWb5CtPEW5+2O83J31EU1OHtI5UU7hfcurwHcFbHjEEU9VCfbdRlijjPUsdKl1hrMHqqx+PY8nIiIisuya1zs1BOzUaezChdnMWt6v/r8yNPcXSHN1O1n975FBaF/AsjUW501Ipdeh8wihfbHq7r2AEc2oI3YeplM6P/oRgTRiqnWEr4LDKuVZvgVeHUuNy5Vq8CUiIiJSr+YFy4BtnyVceWwmP9v3HZ/bPbJTEgxWMsjqPn0MQpvQPo9lHRarIZZj+RpZ9zFCaxssZyED5tG+5Wk/NR/jqyGs5sUgD2kutFmDnqSIiIjIHGtmsLx1CrtwefpBq3NYhq0Ezf0VBis5xLrfHycUp7F8E2yCQ25nxSNWbBM6Vwj5Fgt5kuXVCKkFfGq1MvBhjaPqLE3v8kZe0UVERETmU+P2LAOwsgqbW2nuciynOmuZAxYroVm3YKkEu+65yndLlS9D1mVhO/paILSv4GUPL3fw8mD62w0mxUnLb3nVlXkB377aGLWPqkt7lut7PBEREZFl18g8hHW72OlT0O6mgHmKvO8pWNaN/nu5p0CoO4HGXgQsW017ehe1RBkAh1AQulcIK08uTqB8l6Xy/NaU9i3Pq1GwXFvXcDvsSq+XXURERKQWjQyW2dzALlwktLvT+5mj8aQD0g2sbjjfy+ywsVetr49jIU+NvUKHxU+PORZWyNqXyTpXwIcs1AmXGRQZi/8+nsBorns1Buukj6XyaxEREZH6NfIWy7or2NYpvN2denbK+9U+wgWKXWqTBWhnVbfjOh/YIHSwziNgjTwl62eGFVuElQ9gxSYLE1i6p6tKsaBl9HWJ1JZZNqpO2Evy0RERERGZlmbeXhUFtr6ObW1AnPIGYmWW35+T9im3Q81njYNlWL5BaJ1hYYLGo7Cc0NomW3kay1ZYmOceRk2+FuT5TIKTguU6Mss4nplebxEREZGaNTNYNoO1VcKlixPouPygnws2MAXL78dIgXKr5hJsBwtdQuscFlo1PvA88BQwd58gdC5Xz38BTrxgaW977fvaF0hM3bC9putbDI2bjCUiIiIy95oZLAO2voE9+YGqDHt6N90+8DTSRXedh5wU/LSrGbq1MbCA5euE9nnw5WxDblmHbOUprDhdzV+ec0a1b7nucv0FMirDruuUD4ZrbUJERESkVo0NltnYIHzgabw/nO6+5UgqxV7OuO39uUM3S1nlWks9HQsdQnEasg2W9kX3iOWnyLpPEfLTsz6aemTV4oqC5fcXqa/BFymzrDJskWU05ufef+mfIiLyQI0Nlq3VhlPbkLUgTHn/Y58aR7osgCxApxoXVePChXtZ7VU+i4Vl754cCZ1LqRw7W5n/LPuoc7ruyN7LSeXXNe1ZdqAsMtyW+xMkskzcQmqIOW6s7OBFC88WoIpJRBZTw/aVNTZYJsuw9XXChfNQTPmi3qe2vYRzz4FWlSWsdQ+qYxawYgtrbWsmL4CFNH+5+ziWtWnUlWJcgVSGHRS+va97M8snZEDZGv+mWUTmUDXmMnXAD4z3wTcoh4S1LazdnetfMSKygNwhZFC0wLJjxQYh1B/aNjpYZm0de+QxCNMNlr3vS1sR/F4Oq3nNe5UBdyzfxIpTYAvS2OrEHMtWCJ3LhM4j872AYNWeZTX5eq9757nXwM2IRcDN9DESWXTuUJaEs5ewlbVU+TWOssTOnMe2tiFXdllEGiSW2Mo6duoc1u40ZntZc4PlELCVFezCpbTKMI2bwNHP6JFuZJvxHs2WGaxk9Qc9ZoTWGSzfrPdx514g5JuEziOE1jZzHf2EqhRbn6P3qrG5lweIhWqwRZZC1fQ0++QXU8AbxrzGekw3oo98ADt1FqL2nIlIc9jFR7DHnk7XtjH4BBNMzV1WDAE6HTh/fvyV05MwtGf5Xp0Migk09sq6WOsMlq+iNP690jgpK04Tuk/i5T4eD2Z9UMczGjfWi/OdJZ+EQU1bPQxiHohZwENVnykzonNcJsFIjQ4czLDuCvboM2Sf+DVY3eBYm5Y7q4TnPolffYXyL27AYNCYDI6ILCFPm5Tt7CXC858mPP4slM0JxJobLAO0W9gTj0OrlbJU09pH3EfxG6Rs8npR/75Tj4Rim5BvYSrBfh+OhRah+yhe7hD3for7YNYHdTztDGw466NoFkszlutYkHOgzA0P3P1lIyKLpBqfGTJsdZ3w5HNkX/0DOHuJu0H0OCwF3+Gp5/H9HfzmNeLPvg8H+9Wf3/0fkSnT76+lcu/bHQK2ukb2ma+QfeLXsM0zEONYlyKrFvxsAgt/jQ6WrdMl+8QnGa6uw62bVRvHKXyY7s0sT3fMc7NkVQn2BFjrImSrE3nsRWGhRbb2HD68gfevgTdnle1IglXjxmZ9IA0z2rN80gU5B8MpCyN6xGOVgZIZsCkm5kZ70/VeL428wM5eJvv4r5L9va9jV56C4QkWUKssdfbBX8HWNin/zf9O+Z/+LQx6pLb6OrcE7v7ynsa17e5ar869pTF6vy1gZy6QffG3yD73VWz7fNoe0qB7x0YHyxQF4bHHse2z+DtvQTmFDJUBe6Q9hcssszRbuai/BN7yrbRfORTowvhgFjpkax/Bb38HH1xj7lZvipC2UZSl3up71dHgKzq0O/Dbf0jrM5/CO12Vu89CjDDsw6BfneeTLEsa3byqF8BSMKC7hq2fwk6dxdY20ha1kwTKI+6QZYTHniH8439O9rU/wl99Cb/+DuzvTOd+S5rNPV3fpvHLOyuw7ip0V1OfIll8WQatdrq+XXkSW91I/62B155mB8tm0GqRfe7zDF9/Bfb2Jn+DYOAHvtzBslNllfP0HtR6A57GIxE6pP5yurl/MCe0TpN1H6P0IT68OesDGk9GCpgHCpbv+uXM8nFfF3O808Y/+insmY9hRQtTsDwDflj1pNdf6pZlkOXpy6rfmXWeZ2bQahPOX8G3zqRAfFoBkjTbVDO9lhaCsgzTSuByMEtfWQ6t9gTijfo0O1iG1DX5uQ9ha2v41Sn9zANSsNzM92zyRjNyO8ebcXZ/hoU2oX1ZWeWxZITOJbzcJcaDquHXnPwysaoj9sEUew7MgzrKsEOAlS5+5VGss5JuqvUST9+cfBRlzrlPpmphFBCFLI2iAkDd9WXK9LtrCd3zpjd8sXkugmV79DHs7Hn89Veh359wmRv4wPG+Y9GaPFxrMpzDQLnWcVEOlmGtM4Riq1ohl6NxLFsldC7j5S5+8OqsD2g8LauaxDX3QjhVTj3Bcpbj61vE09vV4+r1nQm97LIo7l5DXOe1iEil+RGLGXb+AnblMWx9s/7OzO9nSJq1vIyl2MZhsFzrS21p/23nMoQcLVuPL7S2CZ3LWLbK3NzJuKfM8jQ+t/Ng9LaddM6ygxct4pmz+Npqo8uXREREROZV84NlwLa2sEceg/UNphIklOB9x0tfvpjOSMFNu+aSTsuwfB1rn9OIm+OynNA6Q+g8ypx8dKv97yFVKSzbZ+l+RnuWT9Tgy6HdJl64eNgMRXNSRURERGo1H3fcIRCefz51xR7Eyd8UlhzuW16m+0/3lFVu11yC7Y6FLqF1HgtzlBVtGo9YtkbWfYzQOjsfmcRRs7jclF2+10nLsL1q7nXlSrochvm4lIuIiIjMk7m5w8o++hE4dw6GU6qN7pFuaJfq/t5SoNyqu0t1tee2fbGa37hUL2rNDMvXyVafBStmfTAPZxxWK2SmdZKKDxw/bsOz0WJhd4V46XJqnDYPCyciIiIic2ZugmXWNwgXLmCbW5P/WaPxUb3J/6hGyS3tVS7qDGocQgsrtrBiUzf1JzZqlLZNtvoUWM5cRKCjYFmS0Z7l474kluEr61WwPNmGhyIiIiLLan6C5SzDnnyK8Njjk48NAnAA3puDIKQu7tAOE2nGFIpTqWzYNGi+LhZaZCtPEYrt+QiYi1Gw3PDjnIaTdsN2hyzD19bxs+e0ACUiIiIyIfMTLEMaIfXooymYm+S+ZSNllfuT+xGN1M3TmJ86X1rLseI0Vpya+Miv5WJYsUnoPlJ1x25w1taBPKRGX00+zmmJnGyOuzteFPjmBr6+UeOBiYiIiMi95itYPn8Bu3wFa3cn29DGSIFyn5PPQp0XZimznIVaS7AtWyUUp7Csy/K8mFPiTuhcJrTPY6FNo7O2RsoshyXft2ykBoIlx38dokOng29vQ6ejzLKIiIjIhMxVsBwuXCA89hRsnJ58R+wBKVg+yU3tvBh1LM5CvYk/j4TWWaw4hVmGsop1cyxbIXQfx4rthgdNlq42c3XFmZDR2KgTZJZZWcPPnMOLAn2uRERERCYjn/UBjKXdge3TsH0K3n5tcj8nkGYtD9KsZcsX/WbUoZXVHshYaKVgOVvDGx3IzbFqQcI7l/HhLXx4B6yBEamRssoBUpS46J+pBxiSOmGfIFiOmxtpxnKMGhs1c9UbOelrnHtaJDbAl/jzIyLTYaNrG4fXn4m4557AjKW+P1g6o3uhZscI8xUsm2GPPU72sU8y+O53sCKf3D7YISmzPGTeXqXxmaUGTHVeCD1i7QuQr1fBW7M/CPMtEtoX8OEu5d4Pmrk33Kkyy0v+S9DAh36YWT7OyxEMbxdEBvjPf4SXUR+vWTGg1SasbcDqRrrWlcP6O5RbgFYrfX5ihF5PXdBFZHIMyDLICyxkuEfoT2hETNFO/zzYw3fv4P0e2ra36AzLcuisYCsb0Cpg0G/s77W5CwPtzFnsiSchZCm4m9BNopeO9S2VTHYm8zMapahKsGt6Pc2M0Ll8T/Mp3c1PjDuWdQmdi3h5h7j/cjM7j4+yYsts1An7RMFyoLz6c/r/z/9C/LOVw8eVKavewCxAq4OdvUR45uOEpz+KbZ+r55d+SMG3v/sG8aXvEV/+IX7zWrppddfnSUQmw4EQsHYXO30We/xZwtMfw7a2qz8/6S+d1KjX93eI3/53+Et/g7/9Or63C7E86dFL01XnF0WBrW5gj3+Q8KFfIVx4FFrtxgXN8xcsr6xgFy8SLl7G331zcj/IOWzytQyJ0Va9+5UtWycUZ7DQYvFfvCYIWLFJ1rmC99/F4x6Nu5MOlvbGT7rfQFONnvaQE+1Z9syIvV3KN1/GVYHdAJ4yv90fEF95ieyNlwmf/CLhyQ/BcHD8hzWD/T3iT75H+Z1/T3zpb/HrV+FgD8qIrqsiMlFmkOVYdxV++B3CD75N9sXfIlx+AorW8QNmM4glfv0a5b//l8Qf/CX+1iv47g7E4dLv1FoKo1PHLAXML/+A+NO/I/vVrxGe+SjWXWtUleTcBcu0WtjZc9gHnsbffmMyP2P0Jvaqr2oP88IKBnmdQUwgdC5BtsJyrDQ0gWNWQOsMofsYcfdHeKPKmKosWFj0D9PD+dBPVGHmwYh5wPNqFJduKmZrdMO4v4O//H3KW9fw/R1s8zS2deaYN5SW9qb/4NuUf/Z/E3/wbXzndlWdoTdcRKbAHYYD/PYNuH2d8vWfpQXAL/4W4dEPQOuY0xhiid94l/Jbf0z57/4Ffut6yiSapYVHQ9e5RXfveTMY4Fdfw6+9nc4vj4TnPpkmHx3j/JpEj6T5C5azDE6fxp5+Bv7sT6pS7AkEYw7ec/zAsWCLe39/d6RPXZllw7IOofMIFnIUKE+XZV2ylSfx/jv48AZ4SSOiKaeaj45WjU84ki5mgTgKlNU4rzmqxnr+7lvEv/xTynNXyF/4B9UC0ZgnvBn+zpuUf/6vKL/zLShLyHO93yIyfaPAdTik/NYfQ7uLraxhl5+s7jHGeyzf2yX+6DuU/+Z/O1wE/OVGlbrWLY+qggGc+Df/AWt3sK1t7MnnUw+QBpjLIj5b3yA880Gs3T7cuzwJfVJmedG33OYGdW1xtTyNMSq2WO6IaFYClq+TrX4AC10a9R7cXS1e5A/TEfQ49ktg0YmZEXNLnUob9PZKJcvwvTvEP/9X+K0bVcn0GKqbxPKv/pT4yo/SSnsIunkUkRlziJH4nT8jvvzDtIg31rd7CoquvU38yz9NGWVlkGXEHYZD4k/+jviD79CkhMB8BsubG4QPP0/M2pP9oPWBg8k9/MyNzsGiptfQI2YFoXOl2qs8l6fXnEtvaug+Smifx6w94+OpONXqoS13o69RL4QTXP9jDjG3ZV9yaLZBPzWrufpq2oM31u8pT01vfvht/PZNyIqJHaaIyFjyHL/2FvG1n+G3rjHWL/NqG0m8fpX447/W2EN5ryyDW9fxt17Fe3vHuleME2gONp9napZhm1tkn/jEyZoMPIiRutYe3PPvi6rI6nl+lkqws86FamO+budnJyNb/SDWOkU1JHHWB1Rllln8So2H8J7jHD8rXLYyytYiX5AWgafyxH7vGOe6wZ2b6WvYX+zfPSIyf9xh5wa+c2u8hUCzVFa7e5t4+8bdrSsid5nhXkI5qDpij/cL0N0VLB8yWFkh+/wXqmB5Mj/F+2nP8kIzqzph13BHZjnkaxC6J38sOTErNgjtS1i+OetD+cVAednLro6bWfaUUY6F4VnAFvzSNNdO+N54/wB6B+nGsiFlaCIiQPo93u9jx5m7POjjvQMYlroXkAc4fpJnEg2+5jRYBitahGefw1bXUtp+EsvvQ9L+wvEXN+aDkc6AoobTwB0L7RSYabWwAapy7PY5Qmu7GXOXzQ6bfC0rJ1WrHLPJ2bCVUbYyfJlfw7lxgjepLPEYFSiLSDN5POxgPda3xcY0bZKGa9B9zvxGNXmOPfooXLgInW79K1RG6oDdY7H3LWfV2KgaWOgSiq1GzUZbau5Yvo4Vp6tmXzO+8b43u7yMHIjg+37MYNkZdrPUCVsx1OIyUpDsrvdZRBrquBcnXdRk/sx3sHz+Avb4U7C6OrEbcO85fntBu84akIWU7TvpA1nAshUsWx9/lIBMjuVYvoUVp5qxiLHMc2IjqQR7h2PdL7gZw06GZ6YSbBEREZEpmN9g2Qw6HcLjT2IrK4f/rbbHr7764LcWNFgOVVb5xK+bY5ZDtpK+tHLYIE4oNptRij0q+1/GBl/3ZpX3ONac5VgYZSsQgy3f6yciIiIyA/MbLFfyr74Ia5t4b1DvA4/KJAfAdRrTULhWZtXYqJM+MYesg2VrWChYzJWFOeUO1sKKUym7POuT2Eil/8vGSAHyzVStMm6wbBGGnbyar4w+YiIiIiJTMPfBsl2+gm1tYXle/4MH8IGnzPIiCkAd+x89YmEFy9frOCqZAAurhPb52TcMCtWs5Vkfx7RVa1J+ffxAOXEGKzkxm/tLtoiIiMjcmP87r1ab8PSz2Llz9T+2kTpi30lB86yTcrULljphnzhLZVi+hmWryxcEzQXHsi6hdQ7LOrM9lFFH7GVSVal4dPwdT40DxxQzY9gJ+LK9diIiIrJ8GhROzH+wbIY98yycvziZxx+C7znss3ilj0bas3zSEzIUWLZaBWINOrvlkOVYvoG1zlT/YRbvky1nsDx6ukPwa+MvurlB2QqUtSxsiYiIiMhRzX+wDITHnyCcvwBZAaHGp1Q15eEA2K3vYRthtHf0xIFLylqSrYBNoBRe6hNahPalqtHXjKIuY/mC5ZE+cIPx1ynMGHZzfBn3eouIiMjycMcHA+jtz/pI7lqIYNmuXMEuXcFWV+sfSzMa93KTxWqsEyztV64lWN7AshUW58VZRI6RVaXYa8zsoz/qiL1MRjPbd6sqlTF5MPqruT5eIiIisthihP0d/Nb1xowaXYjbVjtzFnvscTh9ZiJ7Zn3oxHfi4gTLo9eojsyygxUbKbsszWYBy1YJ7Utp1NcsSrFHZdgNuQBOTQ/85vH6HniAwUqGL9trJiIiIsvFHQZ92N9tzL3iQgTLZBnhYx8nfPgjMBjWP285Vje6x+pi21CZ1TPCxwKWb0DQfuW5YIGs+wiEfAbN2BzMD2ctLxHv39NVf4zn7gbD0X5lERERkaXQnAzlwtyBhUcfI3zk49iFK9T64o7GEN8CeixOwJxXnbBPEjB5xLKV1NxL+5XnhhWn08xlK5jqAofD3SZfzbj+Td7o5T0g7Vcuxvtez4zBSr68+7xFREREZmhhgmXW17Cnn8We/wh3b8jrEoEd8IMFyS6bHWaWTxQrOZZvYqEDtjin0sKzjNA6n/aZz6IYYNnKsCOwT8osZ2N+ax4YdjMsqmpDREREZNoWJ8LJcsITT5B95rNQtOu9GfeqjHJnUYJlUsBSQ7bqboZS9/Lzw0tC+xyWr1edsadoVFWzOFeehyvB9z111B+nBDtAWQTKVtDnS0RERGQGFuqW1c6eJXz8E4Rnnkub/eoUSR2xhyxACWkVKJ/03beMMItyXjkhx/J1rDiFhTZTf++WadaygQ8c9kjbOMZ4qT1LgXLMF+oyLSIiIjI3FusuLM+xqF68jwAAIABJREFUK4+Qfe3reMipNap14FrqjD33jBr2zYdUxputYSFDwfKcsZzQOpuas0270dcyzVo2oA++4yloPupL7RBzY9hRF2wRERGRWVmsYBlgfR378Eewi5egGKebzkN41RG7PPz3uXQ3UD5htGyk+cqhc7LHkRlxrLWFFVvTLcWuZaFmjgRgH7jDWNcMcycWRtkJ432jiIiIiNRm4YJl63YJH3ia7PNfhJXV+vYuG/gNh0E9DzfX3DGHrH0BqzuDL9PhEbM2lo9mZE8pIPPqaxH2/h9FAPaq5l5j7Vc2ylbGsJVhipVFREREZmLhgmXMsM1N8j/4A2xlPd2Y1xEwO6lBzwEpu7wI8eFxn4OBh4C1z1RdsHU3P39SejeN/lqf7o92hzhGSfI8K8H3qj3LR7zapqxyYFgEfFnK1UVEREQaaPGCZYCiIDzzDOGjH8fWN2vbk+k9x3d9cYLlE7DQTiW8C3oKLQvLVlJX7LSqNNkf5vf8M46XaZ1bQ/BdT2Pnxni+w5a6YIuIiIjM2mJGOmbQ6ZL92pewS1cgy+vJLg+BO1V322W40X9fDpZj2QaENkv8QiwAh9BNTb7GHQB8HPeeKtNuKjYjvl9llQcc+aPiZpTtQCwCtiSvk4iIiEgTLWawXAmf/gz25FNYXXuXHfy2Q//kD9UYx7gXN2sRitPKei0ACwWWr1X7lqe0kdiXpATbSFs3dhnrpY2ZMWxnxFwLUSIiIiKztNDBsl15hPChj8DZ8/XcnGdVR+yDGh5rLlVtjEMLa50m1aMvQ9SzwCxgo+yyTyFYHjX4WgYG7FTZZTja83Yoi5RV9kzBsoiIiMgsLXSwTJaRvfAC4bkPpfvUk2aXA3Az7UEkMuc3/ced3xOw0MHyU9MJrmSyHAhtrNhmqh2xF90oPr5dlWEf8aNm0Rl2Msoi4NriICIiIjJTix0sA1y8RHjuecKlKyd/rAB+x/F3q0Zf83wve6xjdwgZlq9imeYrL4aIWU7INzErmPx7ukSdsB18x9Oc5aMyGHYCMTOW40USERERaa6FD5ZtZQX70POED34Is3Cy7LKTuttedbjFVHoi1e6Xmx6P9XJ46oKdr4PN45OX92UZlq1i2QoTDZZH8d8ylGIbqanXLnj/6AtrZREoWxkeTPOVRURERGZs4YNlQiA8+0HCJz+Fb2yd/PEMeBv82rxnlo8RsXgEa1Wjhub5ycsvsABZG4rTTCWK9bv/s7gCqfx6j9RF/4iGnYyYB328RERERBpg8YNlwLbPYM9/hPDch09+j25pH6K/6/jenAbMdvd/xv/WUEBYYeGDnaWSmraF1tnq3yf13lqVVV6CMuzRdWLfx+qEPVjJ1NhLREREpCGWIljGjPDIo4TPfh7a3ZM3+irBbzj+zpwGy9jxAmYzzFpYaLH40c5yMcux1pm0VWHSliVYvunQO/q3uMGgm+PLcVUWERERabyluS2z7W3Chz+MPf4kZPnJAuYMuAm8wXx2xT72U88gFOnL5+1Jy/05EAjFJoQJN25zpjbOeaYcuE6ayX6Uq6xBWWSU7bRfWURERERmb2mCZTodwuNPkn3+79UyQsp3HL9alVkuy72tBbA2wVqzPhKZBMux4jRYzkRXgH65ydyiGTUCvOP48IjXh6oLtme22K+NiIiIyBxZnmDZDDt3juwb34QyVDfsx7wrHd0M33b8bYe8zgOdAiM997E7YRdYVuCmsTaLyBysOIPZBE9o98WvSnDwnsMuUB7t70czBqs5zhKUqIuIiIjMieUJlgFaLezKZcLXvg5r6ye7aXfgDvgr83pne4xu2NaC0J7I0cisOU5JaJ3BQod0aag7xVnNWI7z+pkZwx3wgyM29zKIeWDQzU5e9SIiIiIitVmuYNkMW1kl/42vYWfPQ14c/+bUUvbI36q6Yi+D0E4Bs4NqRRdTyNchW6nmaE/gvF6GPcvG4X7lI7yEHozYMmKxXJdjERERkaZbvruzVkH4xCexJ5+GldXjP46RSixvA2+y+AEAYKGFmTLLCy2kOdo2yX3LvsD7/C19+TsOg6N9S8xg0FFjLxEREZGmWb5gOWTY+QuET38WO3P24X//QTyVWvpP/Wh7E5tgFP+MdV+e5uOatauxUbKYDCxgxRaE1mT2FvuoNHmxA0N/t2ru9bCX0B3PLI2MWuyXRERERGTuLF+wXMle+DLh0Scha52oFJshxFdi2p84L9XYx3q+ngIozVhecE7It7DQndTDL3aDr6rixK9XC2gP/agZMQsMu9mCLx+IiIiIzJ+lDZbtwnnsox/FLl062QONbozf5Yg3xw0xVsCc5vBiLbBiUkckTeAxlWFnq9UIqbofn8Uuw3agl0bLPbTaxNN+5bKVEfOgNSgRERGRhlneYLndIfvM5wjPPgdZfrIutCXEn8Q0c3kujPtcHcsKLGthYUKNn6QhHEKOZd36S+5HgfKinj5VpYlfdxge5a87sWVpvvLED05ERERExrW0wTJm2DPPYs89D1unT1aKHcDfcNghZZMaf+c75gE6KaMcWkxmpJA0ipM6n4eaqwi8yrbOy/7+4+iDv1l9vh7yMXEzylagbAdskUvTRURERObU8gbLgG1sED78UcJzH06zX48bMAfwm56a+vTmpMR0rJtzB2tjVoAt9SmzBKqTdzQmrM6VnwjEuLhzlmMqv/af+d2u2A/867kx6GQMWxm2oC+JiIiIyDxb7sjHjPCBDxA+8UlY3+TYUa6TMkpvOOzS7FfVOEaDJceyTv2ZRmksCxPofB4djtIheh6N5q5fTV8PvZQ4DDsZg25OzOZhdU1ERERk+TQ5rJsK294mPPcc9vQzVeOh45dj++uO356XzPJ4f92ybirFVrnoUrDQSsGyQy0ntAGlp69FZMAO+CtVdclDnmbMjP5qzrCTTeXwRERERGR8Sx8s0+kSnnqa7FOfxWM8WSn2dYfrQI9mB8x3b+SPfpAWupjlLGZaUN4jtGvufG4ps7yowXLVFd9fPVpWebCSssqeWaMvFSIiIiLLTMEyYI88SvalF7Du2sliwQjxaiReiw0PlscshbUAWacKlmXxeZVZbp+sS/y97maWIwu34GLgNzxVluw4PCRZ7AEONluUbV1+RURERJpMd2sAIWDnz5N947fxonX8ACEDrpFmLjc5JnBSlu9IQbNhlqdA2YzmPimplWUQCizkpJO5BuVo9nCTV5LGVH0c/B1PPQvu+W/301/PKbsZHhbodRARERFZQAqWR06dIvv1rxK2z0JRHC9gDuC3U1ds9mhmTDCKd48c8zruJe5D7VdeKqHKLLfqWR9xP9yz3MTPxXEFYI/U2Ov6w59bzI2DzZaaeomIiIjMAQXLFeuuEJ77EPb8R6HdPX6A0AeuVfuX56F3z5Hu2SOUBylgXqhIR+7HLIC1sLrGR0UOqxkWiVWB8tv+0F4FHozeWpH2KiurLCIiItJ4CpZHsgw7dZrsKy9i5y9Cfsz9uV7NXD7K+Jh54Y6Xu+CD+vawSqM5pBLsrH3yB7u7X/nkD9U4A4ivR7jBQ6+mo6yyK6ssIiIiMhcULN+r3SJ74SuEz3wO2z6TGluNK4DvVpmmfZq7xXesUmxLwXLsszgrAPJgDlZgoVPDY1kKluOCzVi2qgP2Vcf3Hrw4FoMx6OYMVtUkT0RERGReKFi+lwXs1Cnyf/SH2Ic/Bu1jdAM2YJBuouPV2LxXeBQk+1jRMl7u4/GA2po9ScM5hBaEbj2PNYwpWF6UtRYDCog/jamp30Oy5mUn42CrNY0jExEREZGaNC2Ua4TwwefIf/Ob2PMfw93GC5hH8ece8ArNfIX9l/75MBbw2MPLPriC5aXggGX1jY8aVpnlhYmWSYtiP3N89wEfJE/l12mucoYt2p5tERERkQXWxFBu9rKM8OnPkn/5K4Qnnhz/+w18z4k/jfg1v/vfmuOoY6NGLO1X9gPw4SQPTBrDMcsgtKr52ic4gd0WK7NspJnqP4lwi5RVvs/zMpxBN6e3VuC62oqIiIjMFd2+3YedOUP2wlfIXvwNvOiMn10rwW858XsxdcltWkJp3ONxx8sDvOxN5HCkidKsZbcT7rMdjY1q2mfguCL4geM/cHzwgAUAh2ErY7CSMWwHbFGev4iIiMiSULB8P1mGPfY42Rf/PtnnvgBZNl7APNq7/KOq2VeTErJj37Snb/B4UO1bXoT0oDyYV+d7xonf7+iHDb4WQQl+zfHX/IFZZYxUfr2Sgzpgi4iIiMwdBcsPkhfYM8+S/87vYU88DWHMwcnVGKn4w5j2NTbpfvluk68jMmAULDfpecgEjdcE7r6ip75wixArG3jP017lHb9/vzuHsgj0V3OGrbAYz11ERERkyShYfgg7dYrw2c+Tf/P3sM1TKcM8pvj9iL9TZZfnOND0eABxf/RvMz0WmQJ3IGInfa9Hzb0W4ZSJwG3wlx72fJz+Ws6wmymrLCIiIjKnFCwfgZ06Rf47v0v49Oextc3xy7H3wX/i+PWGRAvOMZKGBrGXvhYi6pEjGXPE2HtY1dzL41wvFAGHn+Wrjt/wB149YxHorRfEXFllERERkXmlYPkosgy2t8n/23+KPf3M+POXiypYfsVhjrf8ehymJl9xwNw+CTkiI+0jiCcbFxaAQbW3d56DxurY/abjP31AVtnB3Dk41aJsBzzocyIiIiIyrxQsH1WWEZ55lux3/hH2gQ+O3fDLDxx/2fE3H5yRmhqvxkeNdS9f4rEPsV/P7F2ZAyfcbOxeZZbnOVImfU764O84/tYDPsMGw1bgYLOVssoiIiIiMrd0N3dUZtDpEn71C2Rf+CJ26crYAWN8OxJfjbDLjBOzfrzeTe4Qe3i5jzLLy6A6SU4S6DqpEzbM9ykTqqzyW47v3f/1iJnR22hRKlAWERERmXu6oxtTuHCR7MXfIPvMr0J37ejfONrv+LoTf36Csta6xKo0dkwe+3g582hfpqFq8OUnySxHoIzzXYINaVzUVcev3r8aww2G7cDBRqGPh4iIiMgCULA8riwjfPgjhC99mfDc81C0xvp2f9fT/uWdGY+SKqvy2LGalQXwPpS7kzsuaZBRVvkEkW6/TF3g5zlYNvDbaQuF37xPCbY7MTf6a0XqgC0iIiIic0/B8nGEQPj4J8i+8U3s4uWjl6ka0COVcv68AcHyYNyMn+E+xMs98GOkpWWOjE7OyLH3LbvD3jBVMcyzrPrMPmD8m5sxbGf014r3/wsiIiIiMncULB+TnTtH9mt/n+y3/kGKlY+aoQ3gO078bsR3PcUh02aWAphBHD+QiUO83K32Lc95ECQP4YeN4I4jOtwZzn9zL8B/7vi7o5bYv/yHULZCmqvcCdgCPF8RERERUbB8InbuPNmvf43s178One7Rv7EEv+7Ev44pWJ7FuzBqvDQYN1ov8XIPH1xPZdmysNwdP+5qTgT2IvTK+V5TyVKfAX/Hoc/7J40Nhis5g9UCm+fnKiIiIiK/QNHOSRQF9uhj5H/0X2AXrkA+xv7lHvjfOH67yi7PonKz9LSndNyfHXvE/jtgGSo5XWR+/HL7MqYS7Hk/P2KakX6/DvbmzrAd6K/klC1dTkVEREQWie7uTsIMW1khfOzj5H/wn2FXHoEsP1pJtoPfcuIPIn5nRumo6NAbP3PosY8P3oGofcsLyyBFisfILI/Oq/1jLMQ0iadxUfHViB+8f2OvGO5p6jXPz1VERERE3kPB8kmFgK2vk33162Sf+wK2faYqO33InbOlL/+Rw1Vg8PBvqV0E+uM3+YISH+7gw9vMZtO1TJ6lQNlLxjoxjVSxcFCmbuvzykhrBS873OD9x6w5lJ2MwWpOWYT5LjcXERERkfdQsFwHM+zCBbKv/Sb24Y8eff9yAK5D/HlMI2mmHixX46PKcYMaAy+J/avqir3Q0pzlsaPAQYT9OW/s5eAHTvxxxHv+vi+BZ9DbKBi2g7LKIiIiIgtIwXJd8pzw+S+QvfBVwpPPQF4c6dvcHf9pmuHKYMLH+H5Kh8G4QY3h7sTeG3icxUHL5FnVCXvMxZBRVvlgzBneTdMHf9vx19+/p4AH6K8XHGy0iLkuoyIiIiKLSHd5NctefJHsH/wudvHKEb8B/E6au+xXp5xddlJ2eb88VhbQ+9fxuHe8fa3SeO4RHydYNtJe5d4x5zI3wWg61L6nxl6//PQ9zVTurRXsnO8S8zleEBARERGRB1KwXDPb2iJ74ctkv/t7sLIG4SEv8ejm/HUnvhLxcopBhgFuxxzv43i5jw9v4wwncHAye2M2+IpVVrlXzm9W2UifhdvgP3vv4pUHY7CasXe2Q8zm9DmKiIiIyJEoWK5byLCLl8heeJH89/8ILzoPD5gNfNfxV1KGmWw6h5p4avI1dpDugBN7b0Psa+bywhlFjUds8GWk8+ighOGcZpUBAviO469WY91Gqoxyfy1n70xHY6JEREREloDu+Cah1SI88STZN36b7EtfSQ2/jpBp8+vV/uW9KQYbTgpuhp4yg+MwwwfX8XJfpdiLxmDsOcsHZZrbPc+NvUrwa0587Re7xHuA/mrGwVY1JkpEREREFp6C5UnpdrGnnyH//T8kfOyTsLL64L9vwEEqx/aXq5mu06rydK+CnHG/MeDlLl7ugKvR1yJJsfIYZdhltfd96HNdgu3vVAtW7/7iXOXBak5vq8VgJZ/X3dgiIiIiMqZ81gewyKzbJXz2c+S3bjDY28V/8HfQ63HfqDSC33L8bx2eBI7WUPvknBTorBaH1bdHYhAH+OAmXpzB8tY43ywN5h7BB7gPcB6ybmOk82fsmd3N4red+MNI/HGEfVJJNmmW8v5Wi8Fajs/rQoCIiIiIjE2Z5Ukyw9ptwq9/jezFr2GPPg7ZA0o4DRhAfD2m7PK0krWjYHnsecupAZIPbuLl7mHprsy/OMDLHbzcxx4WILrB7nB+9yobsAfxu5H4wwg73L0yli1j90ybwaoCZREREZFlo8zyFFinQ/57vw+371DeuoW/89b993UaECH+RSScDdimTb4c24BBTMHOKI04RnbZh7dSsOwPzUHKXLBUXj+8A3FQNW+7zwnhpEWWvXL8Pe9NYECeAmX/W4c73A2UY2bsnuvSX8vnt7RcRERERI5NmeUpsVOnyH//D8h+9w9g/fSDb74jxLci/sOq2dc03iWn6mQ8bnbZ8HiQRkiV+woqFoKlaoHhrQdXC4z+7M7gGFUJDXEA5bdK4t/E9FmrTt+ylbFzXoGyiIiIyDJTsDwtWYZdukz24q+TfeOb0H5Iw68I8ccRv+Zpes+kBYNePF4prUd8eAcv70nLyfzyMlULDHd5YKWAkxp77c3hnG0D3097lP2vHd/1u2sCZStwsFXQXy8UKIuIiIgsMUU201QUhA98gPzr3yB74SuQt+5/Mx7SCBv/ueM3fUql2GUqxx47SWhpf+vwtkZIzT3D4y5xeBuPvQf/1eipGqF3nE7qMxSAXfCXPGWUb/tobDjDdsbBZouDjQLXhCgRERGRpaZgedpWVrEPfYjsd34vjZRqd3nfSNhIM19/5vibDtNI3g29CpbHnbccoNxPpdj+gG7f0nxmxMENfLjz4IUPI2WVd8v0z3lhwD7En0fi9yL+1uE2h1gEehsFBxsFsQg6jUVERESWnILlGbC1dcInf4XsP/8vU4fsVuu9f6nqleXvOv5qlV2e9LsVgYGnfctjZbIN9yE+3ElBlk6r+eUO/XchPmT/uZMWVvaGzE1TNwP6EF+JxL+L+Bt+t5ldzIzeRkFvoyC2df6KiIiIiKKa2TDDNjbJv/FNst/4TeziZcju00jIIb4RiT+PU9i77NAvU8A81l7NVMPq5S4+uAFB9avzySHuE4e3cB9w3yB4lFXuxRQwz0msDNVn6bsRf6VafKqOvb+Ws3+qoGwroywiIiIiiYLlGcv/yX9N9vXfxi5eef+/EICb95RjTzIONUul2P3jzFwmBcv9dyZwYDJ5BgRi71pq7OWRB0bBvTJlleclUA4QX4vEP4/4q4fNvDA42CzYPdehbGmRR0REREQOKVieMVtZJfvGb5H92pfg9PZ9s8u8DfFvIzwg4VeL0lNmeewstoEPieUOPtxjfqIoucsg9t+C2Odux6v3Uzr0YwqYm94tuiqz9red+GcRf/cwUHaD/mrO3rkOMdOlUERERER+ke4QZy0EwmOPkf3mb5P9/RdhZfW9AYiBH6S9y/HbVcA8KU7as9wvx4933fHyAB9cm8SRyaTFIbH/dlWCfR9GCpQPyumMNDsJA4bgV53yW2Vq5jUgBc+Z0V/L2dtuUxZBazsiIiIi8h75rA9AgHYH+9DzZHu7cOcO5Z/8a+j3UrOlEQe/4ym7vArhyQBt6t9faaRS7F6ElXG/18AHxIM3sdZ5zLQWMx8szVYe3MDLXVKnt/tEj07KKPcaPiLMgAj+jhP/KuIvH1ZLeEgZ5YNTLQYrKr0WERERkfenYLkhbHWV8LFPQK+H37hB/I9//ovxymiU1DUn/nWENQgXAhTUHzCPymx93EZfVSl2/21CuYvlq6h4YR54WuTovfnwOdmjhZSxO6ZPWUyd5OMPIv5SNXrNUqA8WMk52Cjor+a4gamhl4iIiIi8DwXLDWKbm4RPf5a812fwyiv49bdhODjMMFfBib+WMsxWGHbWUtOvOm/4YzVveehQjBkReYmXO3jvTTx7ArO6D07q53jsEXtXqz2+D3jPD6qs8kP6f82Ug99w4vcj/n3Hh4dj14adjIOtgv6aAmUREREReTCl/ZrEDDt1iuzLXyH/p/8dduHS+4+UCuDfq4KBWxO423cORwON3cAplfSWez+F2EOB8hzwEh/ewYc3Hv527Q3TQkpTGfh+qr6I34v43uEs5bII7G236a0XeGYKlEVERETkgRQsN1G3S/bN3ya88CJ29hzvm8Iz8B86/iM/DAjqFB0Ohhw32PXhLWL/Oh4n2Y1MTs7w2CcORu/Vfd5vs8MO2HEC51sdDHzoxL+IxJciHJCucFVDr71zHQarafFJgbKIiIiIPIyC5SYKAdvYJP+jf0z41S/B6TMpWLk3y2vge078u4j/bTUOp64AxkgBUS+mDPOxRPzgNSh3azwwqVdKuXp5m9h7gwdeDtxhd5hK85saaA7A/0NaQGKHu6ddbBk759r01nI86FwUERERkaNRsNxUIRAefYz8H/4+2Ze+DFvb7/07Dn7LiS9F4g+rfaR1uTtCKh4zODJi/x1ieRsfdVeSxvHBDeL+a/jw9oNL7suYSrCbllW26msX4l/G1NBrx++OiS5bgf3TbXobhQJlERERERmLGnw1WZ4TPvwRsoMDcKf8k38L19/hbvQ6Go/zbtXwa9WwR0ZdwGr4+aXDzhDaoRoLNc43G17u4f1rUJyCfPMXR2HJjBkeD4i9N4kHb4KXPHBc1H55goWTCQmkbPJ1x3/iaY/yncMDLFuB3nrBwUaBZ1oXFBEREZHxKFhuunab7JO/grVakLco//Ufw83rEKuhsQb0wd9ITY3CasA2rZ6agUgKltdzaGXHyih6/x28dQbL1mhWSnLJeUnsXyX23sTjDvc9YYzDRZNjl+TXrGrY5Xccf8vxnzr+M8dvV12vbRQo5/Q2C8oiaI+yiIiIiIxNwfI86HYJn/o0+fYZvN/Dv/Wn+M1raawU3A2Y448jrEP4WMA2rJ7YdFDCrQFsGbTGjMAt4IPbxP41rNjGspUaDkhOzvDBTeLey8TBNR54ojip+/XOsN598SdRgt+ussnfj/jVqjQ8q/64SOOhepsFw5YCZRERERE5HtUmzgszwqOP0vpn/yPhK7+BbZ9LY6Xu/jkQIX474i976gRcR2BjBjuD1Bn7GJlF9yFxcJ04uAmW1XBAcnJOuf8TvP8u+EMGJg89lWCXDdmrPNp28OeR8j+Wh4GyAThlO7B7rs3+6RalAmUREREROQEFy/Mkz7FLlyj+2f9A9jv/EC5cBsJhYyYDSij/oiT+LEKPegKc0uHO4Jhzl1MTKe+/zeFByuw45f7LxIM38djnoe/HIKYu2NkM3zcjXakOIH4vUv4fZWpoNxoNVemtF9y+1E1zlMO4e+xFRERERH6RyrDnTZZh29tkv/+HsL5B+S//Bf7Dv4M4TA20DLgD8a8jZBCeDXf3eB6bGRxU3ZCLqhz7qI9nBrGPD27ig3exYluNvmbC0j7lwQ3KnR/hsffghQ8jNfTarRZJZiUAPYhvRPz7jr/qh92uq+OMVSOv/dMtYqHFGBERERGph4LleRQC4fIV+OpvYO025f/1fxL/6j9CHlIgGsHfdvzHjq956pD9kGrbh3KqYDmknzPOY5nh5Q6x9yYhP4U1ZvPrMnG83Kfc+zFe3uKhc8aG1Vzl3XJ2ixsB/Ga1N/knEX/7l7YXGAw6Gb3Ngv5aauQlIiIiIlIXBcvzKgTClUewL78IeZ7Gyv7td6HsAw5D8Nec2I6EVsDO28nnMA+q7HI7QGec/cejMUXvENo7kK+d8EBkXF7uEw9ee/iYKEizlHcGqfR+MIOssgEDiK+l/ff+iuPX/XDBx8EzY7CS0dso6K/mxGKMagcRERERkSNQsDzPsgy7coXsxa9Cp8PwfwX//t/AoAfB8d00VocWhPWAdU6YzXWgV6bOyK0AYYzH8yE+vE3sXyXLR2OkFN1MnqXXfvAucf9leFj5tXtaELk9TKX30y4AiKTz9g0nfjfibzoMuDsSCiDmRn81p7fVYrCS4WPPABcREREReTjVLS4AO3uW7IWvUPyT/4bw5DPQXQUL6d3dI5Vj/9DxgxoiiqHD/jB9jRlIeewRD14HH6LoZlqcOLhJPHidOLjx8AZtvWpUWH8GgfKg6nT93Uj804i/liok7l6lDMrcONgs2Dvbob+ap0BZRERERGQClFleBGbYqVNkL/46bG4x/J//J+L3vwe9fXDH7zjxW6kcm6fA2ifMxPUi3OjDajHOQYKXeP9dfHA83v+TAAAYBElEQVQ9NfrSKKkJMzzuEw9eTYsUD4orjbQQ8m4vZZSnKYD3HP+5E/8q4j/3NDP57kiopCwC+6da7J9uoT3vIiIiIjJpyiwvkqIg+9SnyP/7f072hS/CyurdP/KeU/5/JfHfRvyNKlI+ybvfj3BzkPa3jsEpKfd/jvsRxhbJyZgR918mHryOxwEPfL37Ea71oI7qg6OqRkL5W2kxJ/5JdW7mHB6qgxv013LuXOhycEqBsoiIiIhMhzLLi8QM2m3Cxz4O9l9Bq035r/8V9HopvjiA+FLEd5zwbMCeMmzdUqnruCJwq3/Y7Ouo8YtH4sFrhPYFaF/ErEAl2RNggdi7Suy9gZc79y+/NlITrzuD1NRrKsfG3Zng8UeR+P2Iv1V1ur6na7vFVHbd2yw42CwYtrNjzfkWERERETkOBcsLyFZXCR/9OJQldFco//TfwLtvpz88IDVP2ovYu0Z4OmCXLGWZx41ZBxFuDyCrZi8fkcce5d5PCZYTWucwlWPXzod3KPd+gg9uwoNGdQ1iath2Z3DybulHYaRO7e86/iMnvhpTp+tRocEoUHZnsJLTWy/or+cMW0GBsoiIiIhMlYLlBWWrq4RPfgo6HWgVxP/3j/Eb11O6buhpDvNO2s8cdgN22bCVMYPm0ezlTpYC5uzowUzsvQ2hjVmBtc6O8UPlYTz2iPs/w3tvPbj8OjrsldWIqCm8/n5Pp+uXHH7qeK/6ufccopsx6GYcbLXor+XEXLtFZInoUigic0EXK5m0ZpxjCpYXmK2skD3/YaxoUcZI+e//BH/nKgwGKSj+/9u7s9+6ruzO49+197kzSVGkRM2SJctlTXZVuVROkCCFqiBJZUAD3UA/9FMDeQ2C/Enpf6FRARrobiRBko5dnbhcjmyVU5Yta7BkURJFcbz3nnP2XnnY54oUNRRJkRSH9QFoyRJ1eS557vA7a+21u6DXlTgTcW87eANkv6z+rBgMhVoooSbQXsM/1EDs3UVcC/FtxHfYLg+KnUmAiIYFYv8ecfEGGvMXf7qyFJT7m1xSrvZN1mkl3ozoVykwP6/gHb1QtDN6+2oUnQxdy/Zkxmwnyvq7IZyAs24KY8x2JdXz0xrft4lLz23GvIw48Nun69TC8m7XauMuXkLG/xKyjPCPf4dO3kuBOeUrdFIJDwLySHDnHe6Qg9XOURJSdbletWLX3OqeO0Ug9on9bxDfwLXOIs5Ox/WLqfW6d5s4/++povyyN9q9kFroe2HzDy0Hva/ETyPxy5jWJj/nRx0zod+p0T1Qp2xkiNrFE7PDrTPsSlZHsho6CMz2WDDGbBcKeI/6DFlrVq7Vod5KgVnVLgiaZ4lAVkMarXW99skmnFOWTvaCLEOOHSP7i7+CfaOEn/1P9JubqXqh+qT1Wj9T4rcRvaS4iw7pyOrWsSqwEKAWYN8arhiKq9bW3gDXxLfPgG7xtkU7XlroG/MHxMVrxN4tVOPLB3oFhel+qiy/ZDnzKx8WoIUSP4noZ4pOV096nqcvqKhS1h29/XV6+xuoFwvKZmcTqhf8bH2Pr1YHmu3078MWXNAyxphVU2i0UphZS2VZNYWgdgfXHkKLPra7hXmGCNLqwMj+bROWrRdirxBBxsbJ/vuf4//rf0NOnEZDrN7MydI2Po8V/YUubTG1mgrzYKLyYpn26F3jiaphjrj4FZpPr/PO7WEixP4dwvxVQu82qi9Jv4OgPJUv7aW8Ga9THogQb0fC/wrEjyI6o8/smyxRIUI+VGNhokVvtEF0r7gHuDGvnUBWR0bHkQNHwPk1vuBrepMwcRQabasqG2O2D1WoNZADh2HsAGsOyyLI6AHk1HfsQqB5VghIZwQ5eAwZ2b/mfy4i+E1o37bK8l7iPbJ/jOw//xfcmTOED/4f4cN/Rm9cR1wVmFXRrqI3FJ1R3BmHXBJkaFAqfMFtK9AN4PM0VGzVJG0nVcwQ5q7g932/Wr9sVxtfSgSNJXHh18TubWI5Axp44fdNNa1NninSGvM17o/9Ukq67CakdfB3NG1Rdi8NkCNf8blArAlFu0beyShbnlBzqBP7qZudL5TI8Cjud/8UGT2YwvJaiEO8x1/+Mdy5QZx5lC5qGmPMayVQ5riL38OdvoC0hiCuoRtQBMoCOXgE//7vo998hfZ7m3e4ZmeRtA7evXkBd/Fyeu0Ma9/b1tqwzasTQY4ew42MICdO4s5dIP7yF4SPP4KHk9DvpWDVA72nxPmIdAU5K7gJBw2eH5gHVctuSGGss8ZTSwtiPgmL1/Hts4hvb8Cd3aVU0bBA6N4gdm+h5RxPbVC8UhnT2uT5MrVeb2RQhtSRkAPfKvqNoneqaes9Ta3+1QmjTgg1R9l0FO2MsukJdY/uuf4WuySwMbZLxXXZkBtVZGQUd+Ey/v2fQK22vsqwKu7sO+g7v4XOTaNTk0sdO3b6mA1jJ5P5DbT6jwKxRA6fxF/+CXLs9DpvT5HOCO78Zdz714k//79o3k9/91TI2a7n5uD5XLbvIe4Uy18bVSGEFJTf+xFy8izEtXceiIiFZbNxZGgYOXced/wE8Z13kYvvoJ98RPzi1+jdO7Awn6qXs4p+DjKrcAbkuCCj1RZTKy8oDqZjP85TIGt6yITVtmWrlsTuTcS1cK0TiFvjephdT0BLtHhM6H1D7N5EY3fp756nF6BbheReeGmmXuuhACkQP4J4N6K3FB6ALlIFcoUiEr0SalC2PGULiqYQ6goSUhvWXunEEqmmO7rt/yK74Q+7Xfw4FkmTO+upNdG9/T38e7+HHDy6/jZDjUh7GPfejwCIVz4k3rsFeX9tlRxjXmgdk4x3jb12vwcvOOu53+n5TZot5MBh/O/8FHfpfWR4dP3PRT5DDh7G/+g/ARCvfYpO34d+P82t2e5LT1TTfV/rdDPzNJUnsz1kaAQ5ehr/23+Iu3AZaQ+v6zxwzm1KG7Z0u137aRtQJV75N8L//5D48UfotV+jjx5Cr5uCjyoynirM8qbDjcmLq8xKmoo9nEHbQ92nCuNqAoJGXG0MP3wR1zgCsn1Gx792WhLzKWL3BrF7G9XyxRciokIeYKZMa8nDBj3MqwnqFKR9uu8q8UZEb6ZuBCBdSMlqaKuDjo5RtD1Fx1G0PaGe+rVlo6vbO4Fz0GqDr7Ht36zt5bC8lkMVSa1iWZZar89ewl34AXL45Kuvx1MFn6GPJom/+gXx6r+gs4+gXHtb2u6ywefSDjo1zUbZIT/0DTvMVwjLImmN8v6DuLe/i7/8kzR8UPXVDlBIQ16nJgm/+Ef0xr+n57ci394XBFXRskhdmBaW10+r7RFr9XRh+MhJ3Hd/B/fWJWgPr+v1U0RoNpsMDQ1teHXZwrJ5Wq+H3r5F+PADwv/53+iNL9CZWSjzFLhqIIfBXXS4M1Vb9vPOycGcqaaHoSy1ZddW2W+rAdc6hW+/hWtMbNx927Ektan3JwmLXxJ731Z//IIng1DtfT2Tp3XKGzXxWkhV4AXQb5V4LRKvRygGn6DgPNoeIh45Qrz4DsWPfky5r4P67V5K3WTVVhvSGUmtuey1QWa7+M56n95MNtvVz5aNfbM3eJwXBTr/OG37h25cd8Iu/tGsyp69/3v1ju+g+70dDlUkdc0Mj0K9mVpjN7LyW+25rP0edBdSCF1H++3WUIiK9ruwOMeT9nSzdoPdIpodZGgUGTtYbScW1/09zbKMVqtFq9Xa2GPFwrJ5kTxHJ+8R/ukfKP/HX6N3bkEsqnUraUq2O+dwP3TIflmqOK6k1brVTgaj9VRpXtUFScG1T5MNnUeykT2+pZQnLH5BWLiGFtOp5XOlwRvnIsJ0nvZQ3qiW63QIKd/dSPsl69eKLmr6cydIL0ejEk+dpvjDn1L+8Z8RT59BsxquugKtTx3oXqNV65ayuv3YzI6h8nTr4GbtG6qa3kzYvqSbY09+W/fknd5Yu/4ddPXaNfjYjOefwe0OttxbuXXGdiOShuKaV6OkHVxiqNra1/89VdUnVWVrwzZbp1psr4uL6MOHxJ9/QPj7vyVe+QR9PFVNz1ZkGOS84L7jkLHBRO3n3J4AXqBdheb6b6gyK4hv4FonyYYvgbyo53s3EzT0CPNXif07aOjy3O/BYK34YpmmXffDq3+rlk+4ziHeiuhVTROue6TqdRmRGInDI4Tv/YDy9/+A8M53ieMHIKtBLbM39itt97VYxhhjjHkBG+y1ofTJf9Z/E6p472m327RarU0Z8GVh2fxmMaJTU+jX1wlX/o34Lz9HP/kotWc7RTqKHBXkjCCnBOnIi4tnTqDhYcin4PwbWrMlG8G3z+A7b7N3BpKkfmctZggLXxL7d9HY44X91HmEuQIWAhQbMMRr8G97oJOKfq0pLM9U20BFBe+JBycI33+P8N4PCW99Bz16DB0aTms4t20blTHGGGOM2Q1U9Un7dW2wFGqDWVg2q9fvo1NTxBtfo1c/JXz4QRoENnUffImMO+SY4N4U5JAszVp/3hlWd2k9cydLv75wTavD1fbhhy9VA7/cLq/OCWhOzB8QF64TigcQ8+d+GlFTQF4o05Zd5Su29wqpmrwIcTKmbaDuAlOKzsXUadAZIr7xBuHcBeKFS4Rz59EjR9FOZ6k9fFf/fIwxxhhjzOumqmRZRqfTodFobEpVGSwsm/WIEebmCB99RPzkY/TqFeL1r9Cph+B6uJOCnHbIUZDhKjSvPMuUVGVu+rSOueVTgH5mHYiCeFx9At8+jdTG05ZS4p9zozufhi6aTxK7t4i9u6jAM2XiqFBoareerdquN2J9cg46pWl41+2Ifqswn6rIOjJCPHKM8NZ3Uqv1hYvE4yfRdhspimpNufUmGWOMMcaYzSciT6rKm7FW+cnXsbBs1k0VnZlBP/uU8ME/Ez/5mHjra7h/f2kt82lBxgWaPL+LWklV5ZaHkSy1aGfPac1WkNoQrvkGrnEIyUYQV3/Bje40KWRqWCD2bqf9k/NHS0F5cBdj2reYfkz7Ji+W1cCoV/qyaRuoWUUfKPq5oncj2o1p25rhYfTQUcrzFwnv/zbhnXfRsfE0aGg7b+9gjDHGGGN2rWazSavVIsuyTasqg4Vls1FmZoi//pzwd39L+Tc/S1sAxBKZKHDnIu6UQJuXFB81heZ9dRiqQU2eHQ6lERGH1A7g2m/gmscQ96K9q3aKtPWAxi5x8UtC9yYa5kn90CwtUy6rgDxftVwHXf/AyMHkciVVk+8p8VcBva5oXyDzaU3yocOEH/yQ4id/QHjvMlqvIyGk/e9scJcxxhhjjNliIoJzjpGRkU0PymBh2WyUwbYCeY7ev0f5s78h/uvP0c+vonOPkBOC/60aclzTRu4vKkqqQs3D/nranzmrHgBPnaUR8EhtDN85i2ueRFxWrZXdKafzoJo8R1j4iti7uWza9bJqch5hNk8huYhLf7dWg9DtAQfaVfSmop9F4g2FXEEDZHXC+QuUP/0Tit/7MXr8OIRoAdkYY4wxxrx2tVqN4eFhvPebHpTBwrLZaIMtp2ZnYOoh8cbXxM8/J179GL1zFTk4jzsXkFFJxdOozx8IlVXrmTu1tKb5mdCc1jKLa+Jq+3Gdt3C1cZDs2dvaTkRAA1o8JvbuEPv30DCLxjJdRFBJ35NehPmiqiLH9W3NOwjIy9utp6vtn24p+iCisxEKhw7vI5w/R/FHf0p8+zw6cQjttNNkaxvYZYwxxhhjXiPnHLVa7cnk660IymBh2WymsoTuYlrX/OAB8e4t9O419MGvkOI6qpPIUB8ZcYgXtNQUFAfnvpPUml130HTQytLv/dPBWSSDbBhXn8A1j+JqY9W+zJHtUWkWRBwx9tF8iphPovlDtJxDNQdiOswipnDcDZCHNMRrLWuSB+HYkSrIg7XIjxQegj4kbf+0oOhsAdSIx04Q3v0+5XuXiW+eRQ8dRtsdyKqLDhaUjTHGGGPMa+S9p9Fo0Gg0tqT1ejkLy2ZrqKK9Ljp5H717Cx7fRBe+QaeuwezXoNNQX4B6gAwEqVq7SQEwcykoN1waAlZ3aY9mt3T74lpIbT+ucQhXn0CyEXC1alLz65B6qTX2oJwl9ieJxSO0nEFjt7p/koJxL6ap1v2YWq+XXzRYzZeBlLlzhQXQx8C0oo8i+lhhRtEFgeDRRpN4+g3iuXOE8xcJb71NPHEKhodTu7UFZGOMMcYY85o556jX69RqNWq12pa1Xi9nYdlsvRih10PnZ9Eb14g3r8L8LejeQMM9dOFbpNFDWlUVOS6rsHrSmuZmtU/zIDR7Wao0+w5SP4hrHMY1DiJuMFlsq071aj1y7KVgnE8R8/to8RDVctlk62r7p26ZwnIRly4OrOZLOFLxvKfoHOgsMAM6FdF7JTyOaOnR5hA6uh8dG0PHDxDHDxLe/S7x/EXiocNQr6efiaqtSzbGGGOMMVtOq2KNcw7vPc45siyj2Wy+lpA8YGHZvH55jk5NoV9+QZy8it7+GOQbaM6B6yLlIoS8mpDNUtV1sK65VX14t7RGVwTxHVzrFK5xBMmGU7u2OHhmjPSrPARW3k5AY4nGRTR/SOzdQfsP0dgHdamSHKqQvFhNti5iCqkvew5YVj2mTLO4KID5au3xPUGnM+g1oMxQ59FOCz0wTjx2En3jDOH0aeLJk+j+A+jwSHV7VkneSq/rid7sDmqPVWPMayAiqOqmvIZt1u2anUlEyLKMer1OlmVb3nL93GOysGy2HVXilSuEKx+g93+JxK/A3UeGIkiVFAeTrwdV2oZbGgbW9EvrmmOBy4ZxnbNI/TDi2yAZ4jxLoXm15dwnB8gzIVkjGgvQPqF7i9i7jRYz6diCpCFdg1brXrUemVVUcpd/qQDaSx3r3Bf0liNOgnYd0mggh8aQUyfRk6eIp05Tvn2e+OZZ2Lc/XTwocuj3UxXZOasib6FByHndT/hmcyz/+W7Wm8nlv7fQbIzZCpv1nLbT2XPwq1t+Xg22ghoE5O123llYNttTCFDk6Nxj9Nub6J1rhF/+A4TPkKFpaAXEA3GwtnlZm3bTQydLwbnu0npm8Wnol2sgvoVkI0htBPHDiG8jrllN0l7+4Fy51rna+1lJE63jIlrOo+ExWkwTy1koemh/EfIyheK8aq8OLLWS69M3+czUapb/v6CLgk4qeiugdxR97FBtQGMY//3v4d55F/fGaeTIYWTiEDI2jmYZeP90KLYnd2N2vBijvVEzxmy65YFlOwWX7cCeg1/d886p7XqeWVg229sgNOc9WJxDp+4Qb3yKfvsp8vgLdP5rdKiLtGop63qqKdouDQVr+GqKtl9WSa1eAERQ5xGpI66eArPvpPDsO4gbQnwTkLT+OMyj5Swa5tByAS0WIe9DXkBeov0ARZmOOVbDuyBtCQVpjfEgHEeqAE2aAl4AfaAvaF+gq+h8iT4KMF2D4SPIwRPI4ePI8VO4t84hR48jw8PQbkOjgdRqaYq191Y1NmYXszdqxpjNtl2DizFbzcKy2Vl6PXTmETr7AGbvobN3oXiEPn6ILk5Ddxp6MxC64EpoRKQRwZcgofoowUWosRSqnQPvEV8DnyG+niZp+3oKnrGEso8Wfej30LyAoqiqxprWEAeFUqEkBeGy+siBPmj1K3k1tToH+or2gVzTmuasAfU2tEdwE0eRk2/B2DHc+AQyfgBGR5F9+5DR/dDpWCg2xhhjjDFmk1hYNjtTjFAUaL8LvQV0dhq6c9CdR/N5iFU6jT0IfSgXYHEO+gtANy3+dTmaL0BchNhFywUoemnolXMgPrVmSzWYqyRVgMvq91GeDO1SXFUxdhB89Tmu+hC0cEj1ZxodREHwIDXwzbS7VauJTEwghw8jByeQiUO4EydgbBxptaBWs6qxMcYYY4wxW8TCstmdVFOg7vfRPIe8B3OzaHceQg9iD4k9dHEazeegmId8Hu0tQFkCHiEF5hSEXRWEB3s2VR9SDQpTV4VqB+rT58bqc1wVcKVaQ+zTh2QZNBrQaqe/b7ZwBw8iExNpz2PvX+d30BhjjDHGmD3NwrIxxhhjjDHGGLOCe90HYIwxxhhjjDHGbDcWlo0xxhhjjDHGmBUsLBtjjDHGGGOMMStYWDbGGGOMMcYYY1awsGyMMcYYY4wxxqxgYdkYY4wxxhhjjFnBwrIxxhhjjDHGGLOChWVjjDHGGGOMMWYFC8vGGGOMMcYYY8wKFpaNMcYYY4wxxpgVLCwbY4wxxhhjjDErWFg2xhhjjDHGGGNW+A+ZfOAJMhMMWwAAAABJRU5ErkJggg==;" vertex="1" parent="1">
          <mxGeometry x="1100" y="210" width="41" height="27.15" as="geometry" />
        </mxCell>
        <mxCell id="idfaNTtJ8LiENN7ivy_d-7" value="?&lt;br&gt;&lt;br&gt;ens3: 172.16.0.126/25, bc: .127" style="rounded=1;whiteSpace=wrap;html=1;fillColor=#f8cecc;strokeColor=#b85450;" vertex="1" parent="1">
          <mxGeometry x="790" y="290" width="180" height="90" as="geometry" />
        </mxCell>
        <mxCell id="idfaNTtJ8LiENN7ivy_d-8" value="?&lt;br&gt;&lt;br&gt;ens3: 172.16.0.66/25, bc: .127&lt;br&gt;&lt;br&gt;Open Ports: &lt;b&gt;22, 80&lt;/b&gt;" style="rounded=1;whiteSpace=wrap;html=1;fillColor=#f8cecc;strokeColor=#b85450;" vertex="1" parent="1">
          <mxGeometry x="790" y="-30" width="180" height="90" as="geometry" />
        </mxCell>
        <mxCell id="idfaNTtJ8LiENN7ivy_d-11" value="?&lt;br&gt;&lt;br&gt;ens3: 172.16.0.92/25, bc: .127&lt;br&gt;&lt;br&gt;Open Ports: &lt;b&gt;80&lt;/b&gt;" style="rounded=1;whiteSpace=wrap;html=1;fillColor=#f8cecc;strokeColor=#b85450;" vertex="1" parent="1">
          <mxGeometry x="790" y="79" width="180" height="90" as="geometry" />
        </mxCell>
      </root>
    </mxGraphModel>
  </diagram>
</mxfile>
